<svg fill="none" height="120" viewBox="0 0 120 120" width="120" xmlns="http://www.w3.org/2000/svg"><g stroke="#000" stroke-miterlimit="10" stroke-width="2"><path d="m79.3863 50.2193h-37.8468c-1.2829 0-2.3438-1.06-2.3438-2.3977 0-3.4577 2.7386-6.2592 6.1186-6.2592h30.2725c3.3801 0 6.1187 2.8015 6.1187 6.2592 0 1.3124-1.0362 2.3977-2.3192 2.3977z" fill="#e83c35" stroke-linejoin="bevel"/><path d="m75.4633 105.871h-29.9271l-6.0939-52.2697h42.115z" fill="#4900d9" stroke-linejoin="bevel"/><path d="m62.6835 41.5624c-1.4063 0-2.8126 0-4.2189 0 0 0 0-5.5526 0-6.0573 0-1.262.148-2.4987.0493-3.7606-.0987-1.161-.5428-2.1453-1.2583-3.0539s-1.579-1.6658-2.3685-2.4987c-.6415-.6562-1.2582-1.3124-1.8997-1.9686-1.1596-1.1862-2.2945-2.3977-3.4541-3.5839-.148-.1514-.3207-.3281-.4688-.4795-.148-.202-2.7632-3.0035-2.7632-3.0287l2.9606-2.9277c2.6646 2.6248 5.3292 5.2497 7.9691 7.8997 2.2945 2.2715 4.3916 4.2906 5.1071 7.6222.3947 1.9181.3207 3.8363.3454 5.7797z" fill="#f1f652"/><g stroke-linejoin="bevel"><path d="m84 47.7459h-47.0001v8.2279h47.0001z" fill="#f4beed"/><path d="m42.0824 76.1143c9.4 0 9.104 5.0478 18.504 5.0478s8.9559-5.0478 18.3559-5.0478l-3.4787 29.7317h-29.9271z" fill="#a7ebea"/></g></g></svg>