<svg width="120" height="120" fill="none" xmlns="http://www.w3.org/2000/svg"><path d="M56.05 30.552c-.49-.494-.49-1.301 0-1.772L66.4 18.37c.49-.493 1.294-.493 1.762 0 .491.494.491 1.301 0 1.772l-10.35 10.41a1.234 1.234 0 0 1-1.762 0z" fill="#F1F652" stroke="#000" stroke-width="2" stroke-miterlimit="10"/><path d="M79.382 32.952H40.57a2.396 2.396 0 0 1-2.387-2.4c0-1.324 1.071-2.4 2.387-2.4h38.813a2.396 2.396 0 0 1 2.387 2.4c0 1.323-1.07 2.4-2.387 2.4zm-39.616 64.14c.2-.023.67.852.758 1.01.29.47.491.986.759 1.457.535.898 1.204 1.75 2.141 2.244.87.471 1.919.606 2.9.606 1.25 0 28.263-.045 28.263-.045 1.003 0 2.096-.09 2.966-.561.937-.494 1.606-1.346 2.142-2.244.268-.47.49-.987.758-1.458.112-.157.558-1.032.759-1.01H39.766z" fill="#00E9A7" stroke="#000" stroke-width="2" stroke-miterlimit="10"/><path d="M79.851 32.952H41.149C41.149 39.28 37 39.167 37 44.82v48.121c0 2.468 1.985 4.465 4.439 4.465h38.122c2.454 0 4.439-1.997 4.439-4.465V44.82c0-5.653-4.149-5.541-4.149-11.868z" fill="#E83C35" stroke="#000" stroke-width="2" stroke-miterlimit="10" stroke-linejoin="bevel"/></svg>