<svg width="120" height="120" fill="none" xmlns="http://www.w3.org/2000/svg"><path d="M82.268 89.74c-.823-2.317-2.584-4.323-3.096-6.724-1.221-5.48 2.67-5.933 2.67-11.555s-2.726-5.622-2.726-11.243c0-5.622 2.726-5.622 2.726-11.244 0-.48-.028-.932-.056-1.328-7.641-.791-13.663-7.034-14.089-14.747a15.74 15.74 0 0 1-8.095 2.232 15.776 15.776 0 0 1-13.292-7.345c-.143 0-.285.028-.427.028-1.903 0-3.323-1.893-4.97-2.627-1.932-.82-3.664.367-3.863 2.43-.398 3.729 3.266 6.44 3.266 10.113 0 5.622-2.726 5.622-2.726 11.244s2.726 5.622 2.726 11.244c0 5.621-2.726 5.621-2.726 11.243s2.726 5.622 2.726 11.244c0 3.7-5.425 8.136-2.698 11.809.426.593 1.108 1.017 1.846 1.073 2.471.17 3.977-2.966 6.42-2.966 3.465 0 3.465 2.712 6.93 2.712s3.465-2.712 6.93-2.712c3.466 0 3.466 2.712 6.93 2.712 3.466 0 3.466-2.712 6.931-2.712 2.642 0 4.744 4.068 7.499 2.684.284-.142.511-.311.71-.509 1.165-1.271.994-3.531.454-5.057z" fill="#E83C35" stroke="#000" stroke-width="2" stroke-miterlimit="10"/><path d="M54.688 67.93l-8.095-1.695a2.725 2.725 0 0 1-2.13-3.249c.313-1.497 1.761-2.43 3.267-2.119l8.095 1.695a2.724 2.724 0 0 1 2.13 3.25c-.313 1.468-1.79 2.429-3.267 2.118zm10.652-6.526l-.653-8.193c-.114-1.497 1.022-2.825 2.528-2.966a2.8 2.8 0 0 1 2.982 2.514l.653 8.193c.114 1.497-1.022 2.825-2.528 2.966-1.534.113-2.868-1.017-2.982-2.514zM45.429 79.541l5.908-5.763a2.753 2.753 0 0 1 3.891.028 2.718 2.718 0 0 1-.028 3.87l-5.908 5.763a2.753 2.753 0 0 1-3.891-.028c-1.051-1.073-1.051-2.825.028-3.87zm21.53 8.56l-7.215-4.012c-1.335-.734-1.789-2.401-1.05-3.729.738-1.328 2.414-1.78 3.749-1.045l7.214 4.011c1.335.735 1.79 2.402 1.051 3.73-.738 1.327-2.443 1.808-3.75 1.045zM54.546 42.194l-8.038-2.006c-1.477-.367-2.386-1.865-2.016-3.334a2.774 2.774 0 0 1 3.351-2.005l8.038 2.005c1.477.368 2.386 1.865 2.017 3.334a2.774 2.774 0 0 1-3.352 2.006zM50.912 52.42l5.368-6.271a2.762 2.762 0 0 1 3.891-.311 2.727 2.727 0 0 1 .313 3.87l-5.368 6.272a2.762 2.762 0 0 1-3.892.31 2.779 2.779 0 0 1-.312-3.87zm12.242 18.391l7.413-3.644a2.76 2.76 0 0 1 3.693 1.243c.681 1.356.113 2.995-1.25 3.673l-7.413 3.644a2.76 2.76 0 0 1-3.693-1.243c-.682-1.356-.114-3.023 1.25-3.673z" fill="#7BF983" stroke="#000" stroke-width="2" stroke-miterlimit="10"/><path d="M83.404 47.703c-.568 0-1.107-.029-1.647-.085.028.395.057.847.057 1.328 0 5.621-2.727 5.621-2.727 11.243s2.727 5.622 2.727 11.244-3.92 6.046-2.67 11.554c.54 2.402 2.272 4.407 3.096 6.724.54 1.526.71 3.814-.511 5.057a2.679 2.679 0 0 1-.71.508c-2.727 1.385-4.857-2.683-7.499-2.683-3.465 0-3.465 2.712-6.93 2.712-3.466 0-3.466-2.712-6.93-2.712-3.466 0-3.466 2.712-6.931 2.712s-3.465-2.712-6.93-2.712c-2.444 0-3.949 3.135-6.42 2.966-.738-.057-1.42-.48-1.846-1.074-2.699-3.644 2.698-8.08 2.698-11.808 0-5.622-2.727-5.622-2.727-11.244s2.727-5.622 2.727-11.244-2.727-5.622-2.727-11.243c0-5.622 2.727-5.622 2.727-11.244 0-3.673-3.664-6.385-3.266-10.114.227-2.062 1.96-3.249 3.863-2.401 1.647.706 3.067 2.627 4.97 2.627.142 0 .284 0 .426-.028a15.55 15.55 0 0 1-2.414-8.334V19h-8.209A4.57 4.57 0 0 0 31 23.577v73.281c0 2.515 2.045 4.577 4.601 4.577h48.23c2.528 0 4.6-2.034 4.6-4.577V46.883c-1.59.537-3.266.82-5.026.82z" fill="#EFEBCE" stroke="#000" stroke-width="2" stroke-miterlimit="10"/><path d="M67.811 34.142l-.34-.254a2.411 2.411 0 0 0-.853-.424c-.966.48-2.017.876-3.096 1.159a2.741 2.741 0 0 0 .682 3.7l6.675 4.86a2.756 2.756 0 0 0 1.96.508c-2.67-2.458-4.517-5.791-5.028-9.549z" fill="#7BF983" stroke="#000" stroke-width="2" stroke-miterlimit="10"/></svg>