<svg fill="none" height="120" viewBox="0 0 120 120" width="120" xmlns="http://www.w3.org/2000/svg"><g stroke="#000" stroke-miterlimit="10" stroke-width="2"><path d="m73.7986 65.501c8.2813 0 14.9946-6.7912 14.9946-15.1685s-6.7133-15.1685-14.9946-15.1685-14.9946 6.7912-14.9946 15.1685 6.7133 15.1685 14.9946 15.1685z" fill="#4900d9" stroke-linejoin="bevel"/><path d="m60.5 47.6093c8.2813 0 14.9946-6.7912 14.9946-15.1685s-6.7133-15.1685-14.9946-15.1685-14.9946 6.7912-14.9946 15.1685 6.7133 15.1685 14.9946 15.1685z" fill="#ff3f47"/><path d="m47.0398 65.501c8.2813 0 14.9946-6.7912 14.9946-15.1685s-6.7133-15.1685-14.9946-15.1685-14.9946 6.7912-14.9946 15.1685 6.7133 15.1685 14.9946 15.1685z" fill="#00e9a7"/><path d="m60.5 57.4129h-37.2308c0 11.3832 5.4379 20.5061 19.921 21.6226 11.8449.8987 11.5757 9.5041 11.5757 14.1881h-4.6841c-5.1956 0-9.3952 4.2482-9.3952 9.5044h19.7864 19.7865c0-5.2562-4.1996-9.5044-9.3952-9.5044h-4.6842c0-4.684-.2422-13.2894 11.5758-14.1881 14.4831-1.1165 19.921-10.2394 19.921-21.6226z" fill="#f4beed"/></g></svg>