<svg fill="none" height="120" viewBox="0 0 120 120" width="120" xmlns="http://www.w3.org/2000/svg"><g stroke="#000" stroke-miterlimit="10" stroke-width="2"><path d="m60 111.186c-3.2816 0-5.9299-2.687-5.9299-6.016v-23.7462h11.8886v23.7462c-.0288 3.3-2.6771 6.016-5.9587 6.016z" fill="#ffb2f1"/><path d="m75.8035 21.9279c0-.0584 0-.0876 0-.1461-1.4681.7594-3.1377 1.1683-4.8936 1.1683-6.0163 0-10.9099-4.9652-10.9099-11.0696 0-1.0807.1439-2.10299.4318-3.06684-.1439 0-.2879 0-.4318 0-12.6946 0-23 10.45634-23 23.33684v5.3743h46v-5.199c-4.2028-1.5188-7.1965-5.6079-7.1965-10.3979z" fill="#e83c35" stroke-linejoin="bevel"/><path d="m83 37.5247h-46v21.935h46z" fill="#4900d9"/><path d="m83 59.4597h-46v21.9349h46z" fill="#00e9a7"/></g></svg>