<svg id="Layer_1" xmlns="http://www.w3.org/2000/svg" viewBox="0 0 335 379"><style>.st0{fill:#3f1bd0}.st1{fill:none}.st1,.st2{stroke:#000;stroke-width:3}.st2,.st3{fill:#ffb9d8}.st4,.st5{fill:#8c8c8c;stroke:#000;stroke-width:3;stroke-linecap:round}.st5{fill:#fff}</style><path class="st0" d="M209.9 360.6c10.3 19.9 19.5 40.4 27.5 61.4.9 2.3 1.8 4.7 3.8 6.1 1.6 1.1 3.5 1.5 5.4 1.7 10.2 1 20.5-1.4 30.4-4.1 40.1-10.8 79.1-25.3 118-39.8.9-.3 1.9-.8 2.3-1.7.2-.7.2-1.5-.1-2.2-7.8-29.8-20.3-58.2-37.1-84.2"/><path class="st1" d="M209.9 360.6c10.3 19.9 19.5 40.4 27.5 61.4.9 2.3 1.8 4.7 3.8 6.1 1.6 1.1 3.5 1.5 5.4 1.7 10.2 1 20.5-1.4 30.4-4.1 40.1-10.8 79.1-25.3 118-39.8.9-.3 1.9-.8 2.3-1.7.2-.7.2-1.5-.1-2.2-7.8-29.8-20.3-58.2-37.1-84.2"/><path class="st2" d="M12.7 273.8c-1.6.1-3.1.6-4.5 1.4-1.3.9-2.4 2.1-3.1 3.5-1.6 3.3-.9 7.2.5 10.5 2 4.7 5.3 8.7 9.6 11.4.8.5 1.9 1 2.7.5.7-.5.8-1.4.9-2.2.5-7.5 5.8-25.1-6.1-25.1z"/><path class="st3" d="M113.1 432c-20.6-23.6-36-34.2-52-56.9-1.4-2.1-3-4.1-5.3-5.1s-4.8-1.5-7.2-2.1c-5.3-1.3-11.7-4.3-14.5-8.8L61.4 323c3.5-2.3 4.7-6.9 4.4-11.1-.3-4.2-1.8-8.1-2.5-12.2-.6-3.3-.6-6.7-.2-10 .3-2.2.9-4.5 2.3-6.2 1.5-1.7 5.6-5.1 10-4.1 6.6 1.6 6.2 8.2 6.3 11.6.3 11.2 8.7 20.6 11.4 31.5 1.3 5.2 1.2 10.7-.3 15.8-1.1 3.9-4 6.9-2.8 11.3.6 2.3 2 4.3 3.4 6.2 13.8 18.4 32.4 31.7 47.7 48.5"/><path class="st1" d="M113.1 432c-20.6-23.6-36-34.2-52-56.9-1.4-2.1-3-4.1-5.3-5.1s-4.8-1.5-7.2-2.1c-5.3-1.3-11.7-4.3-14.5-8.8L61.4 323c3.5-2.3 4.7-6.9 4.4-11.1-.3-4.2-1.8-8.1-2.5-12.2-.6-3.3-.6-6.7-.2-10 .3-2.2.9-4.5 2.3-6.2 1.5-1.7 5.6-5.1 10-4.1 6.6 1.6 6.2 8.2 6.3 11.6.3 11.2 8.7 20.6 11.4 31.5 1.3 5.2 1.2 10.7-.3 15.8-1.1 3.9-4 6.9-2.8 11.3.6 2.3 2 4.3 3.4 6.2 13.8 18.4 32.4 31.7 47.7 48.5"/><path class="st4" d="M26.4 359.1h26.4c5.8 0 10.5-4.7 10.5-10.5v-68.8c0-5.8-4.7-10.5-10.5-10.5H26.4c-5.8 0-10.5 4.7-10.5 10.5v68.8c0 5.8 4.7 10.5 10.5 10.5z"/><path class="st5" d="M28.9 341h21.3c3.8 0 6.9-2.9 6.9-6.6v-51.9c0-3.6-3.1-6.6-6.9-6.6H28.9c-3.8 0-6.9 2.9-6.9 6.6v51.9c0 3.7 3.1 6.6 6.9 6.6zm10 12.1c1.7 0 3.1-1.4 3.1-3.1 0-1.7-1.4-3.1-3.1-3.1-1.7 0-3.1 1.4-3.1 3.1 0 1.7 1.4 3.1 3.1 3.1z"/><path class="st2" d="M22.6 307.7c2 1.6 3.8 3.6 5.1 5.8 1.6 2.5 2.5 5.9.9 8.4-1 1.6-3 2.5-4.9 2.7-1.9.1-3.8-.3-5.6-1-4.5-1.6-8.5-4.2-11.9-7.6-1.1-1-2-2.2-2.7-3.5-2-4.3.6-10.4 5.6-11 4.2-.6 10.4 3.7 13.5 6.2zm-2.5 38.6c1.6 1.2 2.9 2.7 3.9 4.4 1.2 1.9 1.9 4.5.7 6.4-.4.6-1 1.1-1.6 1.5-.6.4-1.4.6-2.1.6-1.5 0-2.9-.2-4.3-.8-3.4-1.3-6.5-3.2-9.1-5.8-.8-.8-1.5-1.7-2-2.7-1.6-3.3.4-8 4.3-8.4 3.1-.4 7.8 2.9 10.2 4.8z"/><path class="st2" d="M28.5 335.2c1.1 3.2.1 7.4-2.9 8.9-2 1-4.3.7-6.4.1-3.5-1-6.8-2.7-9.6-4.9-2.8-2.3-5.1-5.1-6.8-8.3-3.9-7.5 2.4-12.1 9.6-9.7 5.7 1.8 14.1 8 16.1 13.9z"/><path class="st3" d="M135.8 86.8c-4.8 5.4-6.1 3-11.8 7.4-5.8 4.3-13.6 6.8-20.3 4-3.1-1.3-5.7-3.6-7.9-6.2-7.4-8.3-9.1-19.1-13.2-29.4-1.4-3.5 1.2-7.4 4.3-9.6 76.5-54.1 187.6-68.2 273.7-29.5 9.6 4.3 22.8 11.6 22.5 23.8-.3 11.4-13.6 2.9-22.3 4.4-18 3-8.4 23.7-21.2 10.5C317.5 39.3 279 36 248.7 36.9c-36.1 1-81.8 6.9-106.2 36.1-6.6 7.9-6.2 23.7-10.8 32.6-2.7 5.2-8.9 8.2-14.7 7.9-8.8-.4-16.8-7.9-17.6-16.7-.4-4.1 1.3-8.9 5.2-10 2.2-.6 4.6.2 6.5 1.6 1.8 1.4 3.2 3.3 4.5 5.2"/><path class="st1" d="M135.8 86.8c-4.8 5.4-6.1 3-11.8 7.4-5.8 4.3-13.6 6.8-20.3 4-3.1-1.3-5.7-3.6-7.9-6.2-7.4-8.3-9.1-19.1-13.2-29.4-1.4-3.5 1.2-7.4 4.3-9.6 76.5-54.1 187.6-68.2 273.7-29.5 9.6 4.3 22.8 11.6 22.5 23.8-.3 11.4-13.6 2.9-22.3 4.4-18 3-8.4 23.7-21.2 10.5C317.5 39.3 279 36 248.7 36.9c-36.1 1-81.8 6.9-106.2 36.1-6.6 7.9-6.2 23.7-10.8 32.6-2.7 5.2-8.9 8.2-14.7 7.9-8.8-.4-16.8-7.9-17.6-16.7-.4-4.1 1.3-8.9 5.2-10 2.2-.6 4.6.2 6.5 1.6 1.8 1.4 3.2 3.3 4.5 5.2"/><path class="st2" d="M70.2 78.5c.6-5.1 3.8-9.6 7.5-13.1.9-.9 1.9-1.7 3-2.3 4-2 9.2.1 11.5 3.9 2.3 3.8 1.9 8.8.1 12.9-2.1 4.5-7.4 12.2-13 11.8-6.1-.6-9.6-8-9.1-13.2z"/><path class="st2" d="M74.8 89.7c.6-5.1 3.8-9.6 7.5-13.1.9-.9 1.9-1.7 3-2.3 4-2 9.2.1 11.5 3.9 2.3 3.8 1.9 8.8.1 12.9-2.1 4.5-7.4 12.2-13 11.8-6.1-.5-9.7-7.9-9.1-13.2z"/><path class="st2" d="M87.4 90.7c1.4-2.6 3.2-5.2 5.8-6.8 4.9-3 12-1.2 14.9 3.7 2.4 4.2 1.7 9.4.5 14-1.9 6.9-8.6 17-17.2 13.3-9.9-4.1-8.1-16.7-4-24.2z"/><path class="st2" d="M85.9 154.2c-2.1 1.8-4.6 3.7-7.4 3.6-3.7-.1-6.6-3.7-7-7.4-.4-3.7 1-7.3 2.8-10.6 3.2-5.9 19.7-25.6 24.5-30.3 5.7-5.6 9.1-8.9 20.8 2 3.5 3.4-26 36-33.7 42.7z"/><path class="st3" d="M115.5 93.7c-1.3-1.9-2.7-3.8-4.5-5.2s-4.2-2.2-6.5-1.6c-4 1-5.6 5.9-5.2 10 .8 8.8 8.8 16.4 17.6 16.7 5.9.2 12-2.7 14.7-7.9 4.7-8.9 3.8-19.7 8.4-28.9"/><path class="st1" d="M115.5 93.7c-1.3-1.9-2.7-3.8-4.5-5.2s-4.2-2.2-6.5-1.6c-4 1-5.6 5.9-5.2 10 .8 8.8 8.8 16.4 17.6 16.7 5.9.2 12-2.7 14.7-7.9 4.7-8.9 3.8-19.7 8.4-28.9"/><path class="st3" d="M108.2 86.9c-.2-1.6.3-3.2 1-4.6 1.6-3.3 3.8-6.1 6.6-8.4 2.8-2.3 6.1-3.9 9.6-4.8"/><path class="st1" d="M108.2 86.9c-.2-1.6.3-3.2 1-4.6 1.6-3.3 3.8-6.1 6.6-8.4 2.8-2.3 6.1-3.9 9.6-4.8"/></svg>