<svg fill="none" height="107" width="123" xmlns="http://www.w3.org/2000/svg"><mask id="a" fill="#fff"><path clip-rule="evenodd" d="M61.5 107c33.719 0 61.053-23.953 61.053-53.5S95.219 0 61.5 0 .447 23.953.447 53.5 27.781 107 61.5 107zm0-13.847c24.68 0 44.688-17.753 44.688-39.653S86.181 13.847 61.5 13.847c-24.68 0-44.688 17.753-44.688 39.653S36.819 93.153 61.5 93.153z" fill-rule="evenodd"/></mask><g fill="#fff" stroke="#000" stroke-width="2.518"><path d="M34.435 86.23a6.924 6.924 0 1 1 13.847 0v10.7H34.435zm41.541 0a6.924 6.924 0 1 1 13.847 0v10.7H75.976z"/><path d="M62.13 86.23a6.924 6.924 0 1 1 13.846 0v10.7H62.13zm-13.848 0a6.924 6.924 0 1 1 13.847 0v10.7H48.282zM34.435 23.288a6.924 6.924 0 1 0 13.847 0v-10.7H34.435zm41.541 0a6.924 6.924 0 1 0 13.847 0v-10.7H75.976z"/><path d="M62.13 23.288a6.924 6.924 0 1 0 13.846 0v-10.7H62.13zm-13.848 0a6.924 6.924 0 1 0 13.847 0v-10.7H48.282z"/></g><path clip-rule="evenodd" d="M61.5 107c33.719 0 61.053-23.953 61.053-53.5S95.219 0 61.5 0 .447 23.953.447 53.5 27.781 107 61.5 107zm0-13.847c24.68 0 44.688-17.753 44.688-39.653S86.181 13.847 61.5 13.847c-24.68 0-44.688 17.753-44.688 39.653S36.819 93.153 61.5 93.153z" fill="#69e5ab" fill-rule="evenodd"/><path d="M120.035 53.5c0 27.855-25.884 50.982-58.535 50.982v5.036c34.786 0 63.571-24.778 63.571-56.018zM61.5 2.518c32.65 0 58.535 23.127 58.535 50.982h5.036c0-31.24-28.785-56.018-63.571-56.018zM2.965 53.5c0-27.855 25.884-50.982 58.535-50.982v-5.036C26.713-2.518-2.07 22.26-2.07 53.5zM61.5 104.482c-32.65 0-58.535-23.127-58.535-50.982h-5.036c0 31.24 28.784 56.018 63.571 56.018zM103.671 53.5c0 20.235-18.59 37.135-42.171 37.135v5.036c25.78 0 47.206-18.606 47.206-42.171zM61.5 16.365c23.582 0 42.171 16.9 42.171 37.135h5.035c0-23.565-21.426-42.17-47.206-42.17zM19.33 53.5c0-20.235 18.589-37.135 42.17-37.135v-5.036c-25.78 0-47.206 18.606-47.206 42.171h5.035zM61.5 90.635c-23.581 0-42.17-16.9-42.17-37.135h-5.036c0 23.565 21.426 42.17 47.206 42.17z" fill="#000" mask="url(#a)"/></svg>