<svg fill="none" height="108" width="123" xmlns="http://www.w3.org/2000/svg"><mask id="a" fill="#fff"><path clip-rule="evenodd" d="M61.433 107.667c33.929 0 61.434-24.102 61.434-53.834C122.867 24.102 95.362 0 61.433 0 27.505 0 0 24.102 0 53.833c0 29.732 27.505 53.834 61.433 53.834zm0-13.934c24.834 0 44.967-17.864 44.967-39.9s-20.133-39.9-44.967-39.9-44.967 17.864-44.967 39.9 20.133 39.9 44.967 39.9z" fill-rule="evenodd"/></mask><g fill="#fff" stroke="#000" stroke-width="2.533"><rect height="27.867" rx="5.067" width="20.267" x="35.467" y="6.333"/><rect height="27.867" rx="5.067" width="20.267" x="68.4" y="6.333"/><rect height="17.733" rx="5.067" width="13.933" x="34.2" y="79.8"/><rect height="17.733" rx="5.067" width="13.933" x="76.001" y="79.8"/><rect height="17.733" rx="5.067" width="13.933" x="62.067" y="79.8"/><rect height="17.733" rx="5.067" width="13.933" x="48.134" y="79.8"/></g><path clip-rule="evenodd" d="M61.433 107.667c33.929 0 61.434-24.102 61.434-53.834C122.867 24.102 95.362 0 61.433 0 27.505 0 0 24.102 0 53.833c0 29.732 27.505 53.834 61.433 53.834zm0-13.934c24.834 0 44.967-17.864 44.967-39.9s-20.133-39.9-44.967-39.9-44.967 17.864-44.967 39.9 20.133 39.9 44.967 39.9z" fill="#f4b7ed" fill-rule="evenodd"/><path d="M120.333 53.833c0 28.029-26.046 51.3-58.9 51.3v5.067c35.003 0 63.967-24.932 63.967-56.367zm-58.9-51.3c32.854 0 58.9 23.272 58.9 51.3h5.067c0-31.434-28.964-56.366-63.967-56.366v5.066zm-58.9 51.3c0-28.028 26.046-51.3 58.9-51.3v-5.066c-35.003 0-63.966 24.932-63.966 56.366h5.066zm58.9 51.3c-32.854 0-58.9-23.271-58.9-51.3h-5.066c0 31.435 28.963 56.367 63.966 56.367zm42.433-51.3c0 20.361-18.704 37.367-42.433 37.367v5.067c25.94 0 47.5-18.722 47.5-42.434zM61.433 16.467c23.729 0 42.433 17.005 42.433 37.366h5.067c0-23.711-21.56-42.433-47.5-42.433zM19 53.833c0-20.36 18.705-37.366 42.433-37.366V11.4c-25.94 0-47.5 18.722-47.5 42.433zM61.433 91.2C37.705 91.2 19 74.194 19 53.833h-5.067c0 23.712 21.56 42.434 47.5 42.434z" fill="#000" mask="url(#a)"/></svg>