<svg xmlns="http://www.w3.org/2000/svg" width="213" height="212" fill="none"><g clip-path="url(#A)" fill="#fff"><path d="M98.668 4.8l-4.35.653 1.305 8.706-6.092.98-1.305-8.706-4.57.653-.653-4.57L97.906.218l.76 4.57zm11.432 8.705l-3.155-5.333-.108 5.224-6.2-.1L100.952 0l10.988.218c3.372.1 5.44 1.85 5.33 4.68 0 2.394-1.632 3.7-3.264 4.027l3.155 4.68-7.07-.1zm-1.088-6.64c1.197 0 1.85-.435 1.85-1.415 0-.87-.653-1.306-1.74-1.415h-2.067l-.1 2.72 2.067.1zm28.058-2.72l-7.833 8.053-.76 3.8-6.636-1.306.76-3.8L118.575.435l6.854 1.415 1.414 4.68 3.263-3.7 6.963 1.306zm6.85 2.83l5.766 2.394-5.113 12.298-5.765-2.394 5.112-12.298zm19.148 14.692l-3.916-2.177-4.352 7.62-5.33-3.047 4.35-7.618-4.025-2.285 2.285-4.027 13.27 7.5-2.284 4.027zm3.916 5.006c2.83-3.047 7.3-2.72 11.64 1.197 4.243 3.918 4.896 8.5 2.067 11.427-2.72 2.938-7.506 2.938-11.748-.98-4.352-3.918-4.678-8.706-1.96-11.645zm8.703 8.162c1.088-1.088.98-2.503-.217-3.6s-2.6-1.088-3.7 0c-1.088 1.197-.98 2.612.1 3.7 1.305 1.197 2.828 1.088 3.807-.1zm5.548 6.53l5.875-4.353 3.698 5.006-5.874 4.244c-.87.653-1.088 1.632-.327 2.612s1.632 1.088 2.6.435l5.875-4.244 3.698 5.006-5.874 4.353c-3.264 2.394-7.07 1.306-10.008-2.72-3.046-4.027-2.937-7.944.326-10.34zm19.472 26.772L198.75 64.1l-7.832 3.918-2.72-5.55 7.833-3.918-2.067-4.135 4.134-2.068 6.744 13.604-4.134 2.177zm-6.2 4.027c1.196-.435 2.502.544 3.155 2.503.652 1.85.217 3.483-.98 3.918s-2.503-.544-3.155-2.503-.218-3.483.98-3.918zm11.096-3.482l1.958 5.768-8.268 2.83-1.958-5.768 8.268-2.83zm1.632 29.166l-.762-4.353-8.594 1.415-1.196-7.183 8.594-1.415-.762-4.462 5.548-.87 2.6 16.107-5.44.762zm.108-5.66l.762 4.353 3.48-.544-2.284-13.93-3.482.544.762 4.462-8.594 1.415.762 5.006 8.593-1.306zm-9.03 24.705l.1-8.38 3.916-2.285-3.916-.1.1-7.292 14.468.218-.217 11.536c-.1 3.6-2.176 5.985-5.222 5.877-2.284 0-3.807-1.415-4.35-2.94l-4.896 3.374zm5.657-5.224l.1.87c.218 1.306 1.305 2.83 3.48 2.83 2.6 0 4.025-1.74 4.134-4.788l.218-10.448-12.293-.218-.1 5.115 9.464.1v2.612c0 .653-.217 1.197-.435 1.633-.326.435-.87.653-1.414.653-.653 0-1.088-.218-1.523-.653-.326-.436-.435-.98-.435-1.742v-1.96l-5.657 3.374-.1 5.66 4.57-3.047zm2.285-5.44v1.414a2.2 2.2 0 0 0 .217.98c.107.218.327.217.653.326.326 0 .435-.1.544-.217.1-.218.217-.545.217-.98v-1.523h-1.63zm2.6 30.48l-8.703-8.38-4.242-.87 1.523-7.727 4.242.87 11.205-4.462-1.632 8.162-4.025 1.306 3.264 2.72-1.632 8.38zm-11.64-10.012l3.48.653 7.507 7.182 1.087-5.66-4.242-3.6 5.22-1.74 1.088-5.66-9.573 3.8-3.48-.653-1.088 5.66zm6.636 22.41l-13.38-5.442 2.72-6.747 13.38 5.44-2.72 6.748zm-11.966-5.986l11.422 4.57 1.85-4.68-11.422-4.57-1.85 4.68zm3.698 21.657l-4.895-2.72 2.176-3.918-7.615-4.244 3.48-6.312 7.615 4.244 2.175-4.026 4.896 2.72-7.833 14.257zm-3.48-3.156l3.046 1.74 6.854-12.297-3.046-1.742-2.176 4.027-7.615-4.244-2.502 4.462 7.615 4.244-2.176 3.8zm-14.144 20.242c-1.63 0-3.263-.653-4.57-1.85-3.372-3.047-3.046-8.27.87-12.515 1.958-2.177 4.242-3.483 6.527-3.8 2.175-.327 4.35.326 5.874 1.74 3.372 3.047 2.937 7.944-1.088 12.406-2.393 2.612-5.113 4.027-7.615 4.027zm3.917-17.195c-.327 0-.653 0-.98.1-2.067.326-4.025 1.524-5.875 3.482-3.48 3.8-3.916 8.38-.98 10.992s7.07 1.85 10.66-2.176c3.6-3.918 4.025-8.27 1.088-10.883-.98-.98-2.393-1.524-3.916-1.524zm-1.96 11.2c-.76 0-1.414-.327-2.066-.87-.653-.653-1.088-1.415-1.088-2.177 0-.87.217-1.632.87-2.285 1.305-1.415 3.046-1.524 4.46-.218 1.306 1.197 1.414 3.047.1 4.462-.653.653-1.414 1.088-2.176 1.197 0-.1-.1-.108-.1-.108zm0-5.333c-.543 0-1.087.218-1.522.762-.436.435-.653.98-.653 1.523s.326.98.76 1.415.98.544 1.414.544c.544 0 .98-.326 1.415-.762.87-.98.87-2.067 0-2.83-.435-.544-.87-.653-1.415-.653zm-16.86 26.02l-4.678-6.312c-2.6-3.482-1.522-7.618 2.72-10.774 2.067-1.524 4.134-2.285 6.092-2.285 1.958.108 3.7.98 5.004 2.72l4.678 6.312-5.875 4.354-4.677-6.204c-.218-.326-.544-.544-.87-.544s-.652.1-.98.327-.543.544-.652.87c0 .327.108.653.326.98l4.678 6.312-5.766 4.244zm3.916-18.283c-1.63 0-3.48.653-5.22 2.068-3.808 2.83-4.678 6.312-2.502 9.25l4.025 5.442 4.134-3.048-4.025-5.332c-.436-.544-.653-1.197-.544-1.742.108-.653.435-1.197 1.087-1.632s1.197-.653 1.85-.544c.544.1 1.088.435 1.523.98l4.025 5.333L175.47 186l-4.025-5.442c-1.088-1.415-2.502-2.285-4.134-2.285h-.327zm-20.016 26.445l-2.502-5.006 4.025-1.96-3.916-7.836 6.527-3.264 3.916 7.835 4.134-2.067 2.502 5.006-14.686 7.3zm-1.088-4.57l1.523 3.157 12.62-6.313-1.523-3.156-4.134 2.068-3.916-7.836-4.57 2.286 3.916 7.836-3.916 1.958zm-7.3 7.4l-3.263-9.25 1.196-.435c-1.088-.1-1.85-.653-2.175-1.632-.544-1.524.543-3.156 2.72-3.918s4.025-.218 4.57 1.306c.326.98 0 1.85-.76 2.612l1.196-.436 3.264 9.25-6.745 2.503zm-1.85-8.706l2.6 7.3 4.677-1.632-2.6-7.292-4.678 1.633zm2.284-5.768c-.435 0-.98.108-1.523.326-1.63.544-2.393 1.524-2.067 2.503.327.87 1.632 1.1 3.155.544s2.393-1.523 2.176-2.503c-.327-.653-.98-.87-1.74-.87zm-22.95 14.04l4.352-.762-1.523-8.598 6.092-1.088 1.523 8.598 4.46-.762.76 4.462-15.012 2.612-.653-4.462zm-11.53-8.598l3.155 5.333.108-5.224 6.2.1-.217 13.386-10.988-.218c-3.372-.1-5.44-1.85-5.33-4.68 0-2.394 1.523-3.7 3.263-4.026l-3.154-4.68h6.962zm1.197 6.64c-1.197 0-1.85.435-1.85 1.415 0 .87.653 1.305 1.74 1.414h2.067v-2.72l-1.958-.1zM77.78 208.3l7.724-8.162.76-3.8 6.636 1.197-.76 3.8 4.243 10.34-6.962-1.306-1.523-4.57-3.155 3.7-6.962-1.197zm-7.08-2.612l-5.766-2.286 4.895-12.406 5.766 2.285-4.895 12.407zm-19.245-14.366l3.916 2.177 4.243-7.727 5.44 2.938-4.242 7.727 4.025 2.177-2.176 4.027-13.38-7.292 2.176-4.027zm-4.025-5.006c-2.72 3.048-7.3 2.94-11.64-.98s-5.004-8.38-2.284-11.427c2.6-2.94 7.397-3.048 11.75.762 4.35 3.917 4.787 8.706 2.176 11.644zm-8.92-8.053c-.98 1.197-.87 2.612.326 3.6 1.197 1.1 2.6 1.1 3.7-.1s.98-2.6-.218-3.7c-1.305-.98-2.72-.87-3.807.218zm-5.657-6.313l-5.874 4.462-3.7-4.898 5.766-4.353c.87-.653 1.088-1.632.326-2.612s-1.74-1.088-2.6-.435l-5.766 4.353-3.7-4.897 5.874-4.462c3.264-2.395 7.07-1.415 10.008 2.503s2.937 7.836-.326 10.34zm-19.908-26.554l2.067 3.918 7.832-4.026 2.828 5.55-7.832 4.027 2.067 4.026-4.025 2.068-6.962-13.495 4.025-2.068zm-4.895-.436l-2.067-5.66 8.268-3.047 2.067 5.66-8.268 3.047zm10.987-3.6c-1.197.435-2.502-.544-3.155-2.395s-.326-3.482.87-3.917 2.502.544 3.264 2.394c.653 1.85.326 3.482-.98 3.918zm-15.773-8.5L.436 116.883l5.548-.98.76 4.353 8.594-1.524 1.305 7.183-8.594 1.415.76 4.462-5.548 1.088zm-1.632-15.236l2.502 13.93 3.48-.653-.76-4.462 8.594-1.524-.87-5.006-8.594 1.524-.76-4.353-3.6.544zm-1.306-2.61L.1 103.497c-.1-3.6 1.958-5.986 5.004-6.094 2.284 0 3.807 1.306 4.46 2.83l4.787-3.483.1 8.38-3.807 2.503 3.916-.108.1 7.3-14.36.218zM5.22 98.5c-2.6 0-4.134 1.85-4.025 5.006l.218 10.448 12.293-.218-.1-5.115-9.464.1v-2.612c0-.653.1-1.197.435-1.633s.762-.653 1.414-.653 1.088.218 1.523.653a2.68 2.68 0 0 1 .544 1.633v1.96l5.548-3.592-.1-5.66-4.46 3.265-.218-.87c-.326-1.198-1.414-2.72-3.6-2.72zm.653 6.42c-.326 0-.544.1-.544.217-.1.218-.218.545-.218.98v1.523h1.632v-1.414c0-.436-.1-.762-.218-.98s-.326-.326-.653-.326zM0 97.5l1.414-8.27 4.025-1.306-3.264-2.72 1.414-8.27 8.812 8.162 4.243.762-1.414 7.727-4.243-.762L0 97.5zm2.393-7.4l-.98 5.66 9.573-4.027 3.48.653.98-5.55-3.48-.653L4.35 79.12l-.98 5.66 4.243 3.6L2.39 90.1zm16.97-13.603l-13.5-5.115 2.6-6.747 13.5 5.115-2.6 6.747zM7.288 70.74L18.7 75.093l1.85-4.788L9.138 65.95l-1.85 4.788zm16.427-4.898l-7.724-4.136-2.176 4.027L8.81 63.12l7.724-14.365 5.004 2.612-2.067 3.918 7.724 4.136-3.48 6.42zm-8.16-5.55l7.724 4.135 2.393-4.462-7.724-4.136 2.067-3.918-3.046-1.633-6.636 12.407 3.046 1.632 2.176-4.027zm14.47-10.557c-1.632 0-3.264-.544-4.57-1.74-1.632-1.415-2.502-3.374-2.393-5.66.1-2.177 1.197-4.57 3.155-6.748s4.134-3.6 6.3-4.027 4.243.1 5.874 1.633c1.632 1.415 2.502 3.483 2.393 5.66-.1 2.285-1.088 4.68-3.046 6.856-2.393 2.612-5.113 4.027-7.724 4.027zm-3.916-2.612c2.937 2.612 7.397 1.74 10.77-2.177 1.74-1.96 2.72-4.136 2.828-6.203.1-1.85-.653-3.6-2.067-4.788s-3.155-1.74-5.004-1.306c-1.958.327-3.916 1.633-5.657 3.7s-2.828 4.136-2.937 6.095c0 1.85.653 3.482 2.067 4.68zm5.874-3.265c-.76 0-1.414-.327-2.067-.87-1.414-1.197-1.414-2.938-.218-4.462.653-.653 1.305-1.088 2.176-1.197.762-.1 1.523.218 2.284.762.653.653 1.088 1.306 1.088 2.177.1.87-.218 1.632-.87 2.285-.76.87-1.632 1.306-2.393 1.306zm0-5.442h-.1c-.544 0-.98.327-1.414.87-.87.98-.87 2.068.1 2.83.98.87 2.067.762 2.937-.218.435-.435.653-.98.544-1.524 0-.544-.326-.98-.762-1.415-.435-.326-.87-.544-1.305-.544zM44.7 35.914c-1.958 0-3.807-.87-5.113-2.612L34.8 27l5.766-4.462 4.787 6.203c.544.653 1.197.762 1.85.218s.76-1.197.217-1.85l-4.786-6.203 5.766-4.462 4.786 6.203c2.6 3.374 1.632 7.618-2.502 10.774-2.067 1.632-4.134 2.503-5.983 2.503zm-8.376-8.706l4.134 5.333c2.285 2.938 5.874 2.938 9.573.1s4.57-6.312 2.284-9.25l-4.134-5.333-4.025 3.156 4.134 5.333c.87 1.197.762 2.503-.435 3.374s-2.502.762-3.372-.435L40.36 24.16l-4.025 3.047zm24.378-1.088l-4.025-7.727-4.025 2.177-2.6-5.006L64.5 7.945l2.6 5.006-4.025 2.068 4.025 7.727-6.418 3.374zm-3.6-9.25l4.025 7.727 4.57-2.394-4.025-7.727 3.916-2.068-1.632-3.047-12.5 6.53 1.632 3.047 4.025-2.068zm15.458 3.7c-.326 0-.544 0-.87-.1-.87-.218-1.523-.762-1.85-1.524s-.1-1.524.435-2.285l.326-.326-1.197.435-3.48-9.25 6.745-2.503 3.48 9.25-1.197.435c.1 0 .326 0 .435.1.87.218 1.523.762 1.85 1.524s.1 1.632-.326 2.285c-.544.653-1.306 1.197-2.285 1.632-.76.218-1.414.326-2.067.326zm2.067-4.788c-.435 0-1.088.1-1.632.326-.87.326-1.414.762-1.85 1.197-.326.435-.435.87-.218 1.306.1.435.544.762 1.088.87.653.1 1.414 0 2.176-.218.76-.326 1.414-.762 1.85-1.197.326-.435.435-.87.218-1.306-.1-.435-.544-.653-.98-.762-.326-.218-.435-.218-.653-.218zm-7.18-7.618l2.72 7.183 4.678-1.74-2.72-7.183-4.678 1.74z"/></g><defs><clipPath id="A"><path fill="#fff" d="M0 0h213v212H0z"/></clipPath></defs></svg>