<svg width="213" height="212" viewBox="0 0 213 212" fill="none" xmlns="http://www.w3.org/2000/svg">
<g clip-path="url(#clip0)">
<path d="M98.6679 4.78862L94.3165 5.44159L95.6219 14.148L89.53 15.1274L88.2246 6.42106L83.6556 7.07404L83.0029 2.50319L97.9064 0.217773L98.6679 4.78862Z" fill="white"/>
<path d="M110.09 13.4949L106.935 8.16222L106.827 13.386L100.626 13.2772L100.952 0L111.94 0.217659C115.312 0.326489 117.379 2.06776 117.27 4.89733C117.27 7.29158 115.638 8.59754 114.006 8.92402L117.161 13.6037L110.09 13.4949ZM109.002 6.85626C110.199 6.85626 110.852 6.42094 110.852 5.44148C110.852 4.57084 110.199 4.13552 109.111 4.02669H107.044L106.935 6.74743L109.002 6.85626Z" fill="white"/>
<path d="M137.069 4.13551L129.236 12.1889L128.475 15.9979L121.839 14.692L122.6 10.8829L118.575 0.435303L125.429 1.85009L126.843 6.52976L130.106 2.82955L137.069 4.13551Z" fill="white"/>
<path d="M143.921 6.96509L149.687 9.35934L144.574 21.6571L138.809 19.2628L143.921 6.96509Z" fill="white"/>
<path d="M163.068 21.657L159.152 19.4804L154.8 27.0985L149.47 24.0513L153.821 16.4332L149.796 14.1478L152.081 10.1211L165.352 17.6303L163.068 21.657Z" fill="white"/>
<path d="M166.984 26.6633C169.813 23.6161 174.273 23.9425 178.624 27.8604C182.867 31.7783 183.52 36.3491 180.691 39.2875C177.972 42.2259 173.185 42.2259 168.943 38.308C164.591 34.3902 164.265 29.6017 166.984 26.6633ZM175.687 34.8255C176.775 33.7372 176.666 32.3224 175.47 31.2341C174.273 30.1458 172.859 30.1458 171.771 31.2341C170.683 32.4312 170.792 33.846 171.88 34.9343C173.185 36.1315 174.708 36.0226 175.687 34.8255Z" fill="white"/>
<path d="M181.235 41.3551L187.11 37.002L190.808 42.0081L184.934 46.2525C184.064 46.9054 183.846 47.8849 184.607 48.8644C185.369 49.8438 186.239 49.9527 187.218 49.2997L193.093 45.0553L196.791 50.0615L190.917 54.4147C187.653 56.8089 183.846 55.7206 180.909 51.6939C177.863 47.6673 177.972 43.7494 181.235 41.3551Z" fill="white"/>
<path d="M200.707 68.1272L198.749 64.1005L190.917 68.0184L188.197 62.4681L196.03 58.5502L193.963 54.4147L198.097 52.3469L204.841 65.9506L200.707 68.1272Z" fill="white"/>
<path d="M194.507 72.1539C195.703 71.7186 197.009 72.6981 197.662 74.657C198.314 76.5071 197.879 78.1396 196.683 78.5749C195.486 79.0102 194.18 78.0307 193.528 76.0718C192.875 74.1129 193.31 72.5893 194.507 72.1539ZM205.603 68.6714L207.561 74.4394L199.293 77.2689L197.335 71.501L205.603 68.6714Z" fill="white"/>
<path d="M207.235 97.8378L206.473 93.4846L197.879 94.8994L196.683 87.7167L205.277 86.3019L204.515 81.8399L210.063 80.9692L212.674 97.076L207.235 97.8378ZM207.343 92.1787L208.105 96.5319L211.586 95.9877L209.302 82.0575L205.82 82.6017L206.582 87.0637L197.988 88.4785L198.75 93.4846L207.343 92.1787Z" fill="white"/>
<path d="M198.314 116.883L198.423 108.503L202.339 106.218L198.423 106.109L198.532 98.8171L213 99.0348L212.783 110.571C212.674 114.162 210.607 116.556 207.561 116.448C205.277 116.448 203.754 115.033 203.21 113.509L198.314 116.883ZM203.971 111.659L204.08 112.53C204.298 113.836 205.385 115.359 207.561 115.359C210.172 115.359 211.586 113.618 211.695 110.571L211.913 100.123L199.62 99.9054L199.511 105.02L208.975 105.129V107.741C208.975 108.394 208.758 108.938 208.54 109.374C208.214 109.809 207.67 110.027 207.126 110.027C206.473 110.027 206.038 109.809 205.603 109.374C205.277 108.938 205.168 108.394 205.168 107.632V105.673L199.511 109.047L199.402 114.706L203.971 111.659ZM206.256 106.218V107.632C206.256 108.068 206.365 108.394 206.473 108.612C206.582 108.829 206.8 108.829 207.126 108.938C207.452 108.938 207.561 108.829 207.67 108.721C207.779 108.503 207.887 108.176 207.887 107.741V106.218H206.256Z" fill="white"/>
<path d="M208.866 136.69L200.163 128.31L195.921 127.439L197.444 119.712L201.686 120.583L212.891 116.121L211.259 124.283L207.234 125.589L210.498 128.31L208.866 136.69ZM197.226 126.678L200.707 127.331L208.214 134.513L209.301 128.854L205.059 125.263L210.28 123.522L211.368 117.862L201.795 121.671L198.314 121.018L197.226 126.678Z" fill="white"/>
<path d="M203.862 149.097L190.481 143.655L193.201 136.908L206.582 142.349L203.862 149.097ZM191.896 143.111L203.318 147.682L205.167 143.002L193.745 138.431L191.896 143.111Z" fill="white"/>
<path d="M195.594 164.768L190.699 162.047L192.875 158.129L185.26 153.885L188.741 147.573L196.356 151.817L198.531 147.791L203.427 150.511L195.594 164.768ZM192.113 161.612L195.159 163.353L202.013 151.056L198.967 149.314L196.791 153.341L189.176 149.097L186.674 153.559L194.289 157.803L192.113 161.612Z" fill="white"/>
<path d="M177.971 181.854C176.34 181.854 174.708 181.201 173.402 180.004C170.03 176.957 170.356 171.733 174.273 167.489C176.231 165.312 178.515 164.006 180.8 163.68C182.975 163.353 185.151 164.006 186.674 165.421C190.046 168.468 189.611 173.365 185.586 177.827C183.193 180.439 180.473 181.854 177.971 181.854ZM181.888 164.659C181.561 164.659 181.235 164.659 180.909 164.768C178.842 165.094 176.884 166.292 175.034 168.25C171.553 172.059 171.118 176.63 174.055 179.242C176.992 181.854 181.126 181.092 184.716 177.066C188.306 173.148 188.741 168.795 185.804 166.183C184.825 165.203 183.411 164.659 181.888 164.659ZM179.929 175.869C179.168 175.869 178.515 175.542 177.863 174.998C177.21 174.345 176.775 173.583 176.775 172.821C176.775 171.951 176.992 171.189 177.645 170.536C178.95 169.121 180.691 169.012 182.105 170.318C183.411 171.515 183.519 173.365 182.214 174.78C181.561 175.433 180.8 175.868 180.038 175.977C180.038 175.868 179.929 175.869 179.929 175.869ZM179.929 170.536C179.386 170.536 178.842 170.754 178.407 171.298C177.971 171.733 177.754 172.277 177.754 172.821C177.754 173.365 178.08 173.801 178.515 174.236C178.95 174.671 179.494 174.78 179.929 174.78C180.473 174.78 180.909 174.454 181.344 174.018C182.214 173.039 182.214 171.951 181.344 171.189C180.909 170.645 180.473 170.536 179.929 170.536Z" fill="white"/>
<path d="M163.068 196.546L158.39 190.234C155.78 186.752 156.868 182.616 161.11 179.46C163.177 177.936 165.244 177.175 167.202 177.175C169.16 177.283 170.901 178.154 172.206 179.895L176.884 186.207L171.009 190.561L166.332 184.357C166.114 184.031 165.788 183.813 165.461 183.813C165.135 183.813 164.809 183.922 164.482 184.14C164.156 184.357 163.939 184.684 163.83 185.01C163.83 185.337 163.938 185.663 164.156 185.99L168.834 192.302L163.068 196.546ZM166.984 178.263C165.353 178.263 163.503 178.916 161.763 180.331C157.955 183.16 157.085 186.643 159.261 189.581L163.286 195.023L167.42 191.975L163.395 186.643C162.959 186.099 162.742 185.446 162.851 184.901C162.959 184.248 163.286 183.704 163.938 183.269C164.591 182.834 165.135 182.616 165.788 182.725C166.332 182.834 166.876 183.16 167.311 183.704L171.336 189.037L175.47 185.99L171.445 180.548C170.357 179.133 168.943 178.263 167.311 178.263C167.093 178.263 167.093 178.263 166.984 178.263Z" fill="white"/>
<path d="M146.968 204.708L144.466 199.702L148.491 197.743L144.575 189.907L151.102 186.643L155.018 194.478L159.152 192.411L161.654 197.417L146.968 204.708ZM145.88 200.137L147.403 203.294L160.022 196.981L158.499 193.825L154.365 195.893L150.449 188.057L145.88 190.343L149.796 198.179L145.88 200.137Z" fill="white"/>
<path d="M138.591 207.538L135.328 198.287L136.524 197.852C135.436 197.743 134.675 197.199 134.349 196.22C133.805 194.696 134.892 193.064 137.068 192.302C139.244 191.54 141.093 192.084 141.637 193.608C141.963 194.587 141.637 195.458 140.876 196.22L142.072 195.784L145.336 205.035L138.591 207.538ZM136.742 198.832L139.353 206.123L144.03 204.491L141.42 197.199L136.742 198.832ZM139.026 193.064C138.591 193.064 138.047 193.172 137.503 193.39C135.872 193.934 135.11 194.914 135.436 195.893C135.763 196.764 137.068 196.982 138.591 196.437C140.114 195.893 140.984 194.914 140.767 193.934C140.44 193.281 139.788 193.064 139.026 193.064Z" fill="white"/>
<path d="M116.073 207.103L120.425 206.341L118.902 197.743L124.994 196.655L126.517 205.253L130.977 204.491L131.738 208.953L116.726 211.565L116.073 207.103Z" fill="white"/>
<path d="M104.542 198.505L107.697 203.838L107.805 198.614L114.006 198.723L113.789 212.109L102.801 211.891C99.429 211.782 97.3621 210.041 97.4709 207.211C97.4709 204.817 98.9939 203.511 100.734 203.185L97.5797 198.505H104.542ZM105.739 205.144C104.542 205.144 103.889 205.579 103.889 206.559C103.889 207.429 104.542 207.864 105.63 207.973H107.697V205.253L105.739 205.144Z" fill="white"/>
<path d="M77.7812 208.3L85.5049 200.138L86.2664 196.329L92.9023 197.526L92.1408 201.335L96.3834 211.674L89.4212 210.368L87.8982 205.797L84.7435 209.497L77.7812 208.3Z" fill="white"/>
<path d="M70.7099 205.688L64.9443 203.402L69.8396 190.996L75.6052 193.281L70.7099 205.688Z" fill="white"/>
<path d="M51.455 191.322L55.3712 193.499L59.6138 185.772L65.053 188.71L60.8105 196.437L64.8355 198.614L62.6598 202.641L49.2793 195.349L51.455 191.322Z" fill="white"/>
<path d="M47.4304 186.316C44.7108 189.364 40.1418 189.255 35.7904 185.337C31.4391 181.419 30.7864 176.957 33.506 173.91C36.1168 170.971 40.9033 170.862 45.2547 174.672C49.6061 178.589 50.0412 183.378 47.4304 186.316ZM38.5101 178.263C37.531 179.46 37.6398 180.875 38.8364 181.854C40.033 182.943 41.4472 182.943 42.5351 181.745C43.6229 180.548 43.5141 179.134 42.3175 178.045C41.0121 177.066 39.5979 177.175 38.5101 178.263Z" fill="white"/>
<path d="M32.8531 171.951L26.9787 176.413L23.28 171.515L29.0456 167.162C29.9159 166.509 30.1334 165.53 29.3719 164.55C28.6105 163.571 27.6314 163.462 26.7611 164.115L20.9955 168.468L17.2969 163.571L23.1712 159.109C26.4348 156.714 30.2422 157.694 33.1794 161.612C36.1166 165.53 36.1166 169.448 32.8531 171.951Z" fill="white"/>
<path d="M12.9449 145.396L15.0119 149.314L22.8443 145.288L25.6727 150.838L17.8402 154.865L19.9072 158.891L15.8821 160.959L8.91992 147.464L12.9449 145.396Z" fill="white"/>
<path d="M8.0503 144.961L5.9834 139.302L14.251 136.255L16.3179 141.914L8.0503 144.961ZM19.0375 141.37C17.8409 141.805 16.5355 140.826 15.8828 138.975C15.2301 137.125 15.5564 135.493 16.7531 135.058C17.9497 134.622 19.2551 135.602 20.0166 137.452C20.6693 139.302 20.343 140.934 19.0375 141.37Z" fill="white"/>
<path d="M3.26394 132.881L0.435547 116.883L5.98355 115.904L6.74505 120.257L15.339 118.733L16.6444 125.916L8.05046 127.331L8.81195 131.793L3.26394 132.881ZM1.63218 117.645L4.13422 131.575L7.61532 130.922L6.85383 126.46L15.4478 124.936L14.5775 119.93L5.98355 121.454L5.22206 117.101L1.63218 117.645Z" fill="white"/>
<path d="M0.326159 115.033L0.10859 103.497C-0.000193961 99.9056 2.06671 97.5113 5.11268 97.4025C7.39715 97.4025 8.92013 98.7084 9.57284 100.232L14.3594 96.7495L14.4681 105.129L10.6607 107.632L14.5769 107.524L14.6857 114.815L0.326159 115.033ZM5.22146 98.4908C2.61063 98.4908 1.08765 100.341 1.19644 103.497L1.414 113.945L13.7066 113.727L13.5979 108.612L4.13362 108.721V106.109C4.13362 105.456 4.2424 104.912 4.56875 104.476C4.89511 104.041 5.33025 103.823 5.98295 103.823C6.63566 103.823 7.0708 104.041 7.50593 104.476C7.83229 104.912 8.04986 105.456 8.04986 106.109V108.068L13.5979 104.476L13.4891 98.8173L9.02892 102.082L8.81135 101.212C8.48499 100.014 7.39715 98.4908 5.22146 98.4908ZM5.87417 104.912C5.54781 104.912 5.33025 105.021 5.33025 105.129C5.22146 105.347 5.11268 105.674 5.11268 106.109V107.632H6.74444V106.218C6.74444 105.782 6.63566 105.456 6.52687 105.238C6.41809 105.021 6.20052 104.912 5.87417 104.912Z" fill="white"/>
<path d="M0 97.5112L1.4142 89.2401L5.43922 87.9342L2.17569 85.2134L3.58989 76.9424L12.4014 85.1046L16.644 85.8664L15.2298 93.5933L10.9872 92.8315L0 97.5112ZM2.39326 90.1108L1.4142 95.7699L10.9872 91.7432L14.4683 92.3962L15.4474 86.8459L11.9663 86.1929L4.35138 79.119L3.37232 84.7781L7.61491 88.3695L2.39326 90.1108Z" fill="white"/>
<path d="M19.3633 76.5072L5.87402 71.3922L8.48485 64.6448L21.9741 69.7598L19.3633 76.5072ZM7.28822 70.7392L18.7106 75.0924L20.5599 70.3039L9.13756 65.9507L7.28822 70.7392Z" fill="white"/>
<path d="M23.715 65.8419L15.9913 61.7063L13.8156 65.733L8.81152 63.1211L16.5352 48.7556L21.5393 51.3675L19.4724 55.2854L27.1961 59.4209L23.715 65.8419ZM15.5562 60.2916L23.2799 64.4271L25.6731 59.9651L17.9494 55.8295L20.0163 51.9117L16.9704 50.2792L10.3345 62.6858L13.3805 64.3182L15.5562 60.2916Z" fill="white"/>
<path d="M30.024 49.7352C28.3923 49.7352 26.7605 49.191 25.4551 47.9939C23.8233 46.5791 22.9531 44.6202 23.0618 42.3348C23.1706 40.1582 24.2585 37.7639 26.2166 35.5873C28.1747 33.4107 30.3504 31.996 32.5261 31.5606C34.7018 31.1253 36.7687 31.6695 38.4004 33.1931C40.0322 34.6079 40.9025 36.6756 40.7937 38.8522C40.6849 41.1376 39.7059 43.5319 37.7477 45.7085C35.3545 48.3204 32.6349 49.7352 30.024 49.7352ZM26.1078 47.1233C29.045 49.7352 33.5051 48.8645 36.8775 44.9467C38.618 42.9877 39.5971 40.8111 39.7059 38.7434C39.8146 36.8933 39.0532 35.152 37.639 33.9549C36.2248 32.7578 34.4842 32.2136 32.6349 32.6489C30.6768 32.9754 28.7186 34.2814 26.9781 36.3491C25.2375 38.4169 24.1497 40.4847 24.0409 42.4436C24.0409 44.2937 24.6936 45.9261 26.1078 47.1233ZM31.9822 43.8584C31.2207 43.8584 30.568 43.5319 29.9153 42.9877C28.5011 41.7906 28.5011 40.0493 29.6977 38.5257C30.3504 37.8727 31.0031 37.4374 31.8734 37.3286C32.6349 37.2198 33.3964 37.5463 34.1579 38.0904C34.8106 38.7434 35.2457 39.3964 35.2457 40.267C35.3545 41.1376 35.0281 41.8994 34.3754 42.5524C33.6139 43.4231 32.7437 43.8584 31.9822 43.8584ZM31.9822 38.4169H31.8734C31.3295 38.4169 30.8943 38.7434 30.4592 39.2875C29.5889 40.267 29.5889 41.3553 30.568 42.1171C31.547 42.9877 32.6349 42.8789 33.5051 41.8994C33.9403 41.4641 34.1579 40.92 34.0491 40.3758C34.0491 39.8317 33.7227 39.3964 33.2876 38.961C32.8524 38.6346 32.4173 38.4169 31.9822 38.4169Z" fill="white"/>
<path d="M44.7099 35.9138C42.7518 35.9138 40.9025 35.0432 39.5971 33.3019L34.8105 26.9898L40.5761 22.5278L45.3626 28.7311C45.9066 29.3841 46.5593 29.4929 47.212 28.9488C47.8647 28.4046 47.9735 27.7516 47.4295 27.0986L42.643 20.8954L48.4086 16.4333L53.1951 22.6366C55.806 26.0104 54.8269 30.2547 50.6931 33.4108C48.6262 35.0432 46.5593 35.9138 44.7099 35.9138ZM36.3335 27.2075L40.4673 32.5401C42.7518 35.4785 46.3417 35.4785 50.0404 32.649C53.739 29.8194 54.6093 26.3368 52.3248 23.3984L48.191 18.0658L44.166 21.2219L48.2998 26.5545C49.1701 27.7516 49.0613 29.0576 47.8647 29.9282C46.6681 30.7989 45.3626 30.69 44.4924 29.4929L40.3586 24.1602L36.3335 27.2075Z" fill="white"/>
<path d="M60.7019 26.1191L56.6769 18.3922L52.6518 20.5688L50.041 15.5626L64.5094 7.94458L67.1202 12.9507L63.0952 15.0185L67.1202 22.7454L60.7019 26.1191ZM57.112 16.8686L61.137 24.5955L65.706 22.2013L61.681 14.4744L65.5972 12.4066L63.9654 9.35936L51.4552 15.8891L53.087 18.9364L57.112 16.8686Z" fill="white"/>
<path d="M72.5597 20.5687C72.2333 20.5687 72.0158 20.5687 71.6894 20.4599C70.8191 20.2422 70.1664 19.6981 69.8401 18.9363C69.5137 18.1745 69.7313 17.4127 70.2752 16.6509C70.384 16.542 70.4928 16.4332 70.6016 16.3244L69.4049 16.7597L65.9238 7.50918L72.6685 5.0061L76.1496 14.2566L74.9529 14.6919C75.0617 14.6919 75.2793 14.6919 75.3881 14.8008C76.2584 15.0184 76.9111 15.5626 77.2374 16.3244C77.5638 17.0862 77.3462 17.9568 76.9111 18.6098C76.3671 19.2628 75.6056 19.8069 74.6266 20.2422C73.8651 20.4599 73.2124 20.5687 72.5597 20.5687ZM74.6266 15.7802C74.1914 15.7802 73.5387 15.8891 72.9948 16.1067C72.1245 16.4332 71.5806 16.8685 71.1455 17.3038C70.8191 17.7392 70.7103 18.1745 70.9279 18.6098C71.0367 19.0451 71.4718 19.3716 72.0158 19.4804C72.6685 19.5893 73.43 19.4804 74.1914 19.2628C74.9529 18.9363 75.6056 18.501 76.0408 18.0657C76.3671 17.6303 76.4759 17.195 76.2584 16.7597C76.1496 16.3244 75.7144 16.1067 75.2793 15.9979C74.9529 15.7802 74.8442 15.7802 74.6266 15.7802ZM67.4468 8.16216L70.1664 15.3449L74.8442 13.6036L72.1245 6.42089L67.4468 8.16216Z" fill="white"/>
</g>
<defs>
<clipPath id="clip0">
<rect width="213" height="212" fill="white"/>
</clipPath>
</defs>
</svg>
