<svg width="124" height="120" fill="none" xmlns="http://www.w3.org/2000/svg"><path d="M63.938 38.99h-3.14L59.621 29h5.492l-1.176 9.99z" fill="#FDCC42" stroke="#000" stroke-width="2" stroke-miterlimit="10"/><path d="M109.226 76.772s-18.373 8.29-29.31-2.673c0 0 20.271 1.178 20.361-16.785l-2.531-2.265c-8.565 14.973-30.78 10.76-28.904-12.685a6.439 6.439 0 0 0-3.322-5.504c-1.875-1.042-4.293-1.065-6.169 0-1.966 1.087-3.322 3.217-3.322 5.595 1.853 23.399-20.452 27.476-28.904 12.572l-2.53 2.265c.09 17.962 20.36 16.784 20.36 16.784-10.937 10.964-29.31 2.673-29.31 2.673l-3.796 3.874c12.226 15.199 42.01 13.115 50.575-1.427C71.102 93.85 100.887 95.754 113 80.623l-3.774-3.85z" fill="#FDCC42" stroke="#000" stroke-width="2" stroke-miterlimit="10"/></svg>