<svg width="124" height="120" fill="none" xmlns="http://www.w3.org/2000/svg"><path d="M39.474 59.136l9.635.638 3.308-9.083 9.635.638 3.309-9.083 9.838.638c-11.057-16.251-33.81-26.902-45.186-19.473-10.302 6.704-10.795 27.89-3.076 44.199l9.229.61 3.308-9.084zm54.994 2.728l-7.72 5.804-7.719-5.804-7.72 5.804-7.719-5.804-7.72 5.804-7.4-5.543a48.38 48.38 0 0 0-.435 6.443c0 19.85 12.16 30.123 27.164 30.123 15.003 0 27.134-10.273 27.134-30.123v-.784l-7.865-5.92z" fill="#FCE865" stroke="#000" stroke-width="2" stroke-miterlimit="10"/></svg>