<svg fill="none" height="120" viewBox="0 0 124 120" width="124" xmlns="http://www.w3.org/2000/svg"><g stroke="#000" stroke-miterlimit="10"><g stroke-width="2"><path d="m43.1749 68.4196 9.2458.6133 3.1748-8.725 9.2459.6132 3.1748-8.725 9.4408.6133c-10.5827-15.6381-32.4163-25.8683-43.3331-18.7322-9.8864 6.4392-10.3598 26.7882-2.952 42.4541l8.856.5854z" fill="#7c6c11"/><path d="m92.5584 74-7.4078 5.5751-7.4079-5.5751-7.4078 5.5751-7.4078-5.5751-7.4079 5.5751-7.1015-5.3242c-.2785 2.0628-.4177 4.1534-.4177 6.1883 0 19.0667 11.6687 28.9348 26.0667 28.9348 14.3979 0 26.0663-9.8681 26.0663-28.9348 0-.2509 0-.5018 0-.7526z" fill="#7c6c11"/><path d="m34.2632 51.4435c1.6709 1.6725 1.1975 4.8503-1.0583 7.1082-2.2557 2.2579-8.7724 2.7039-8.7724 2.7039s.4456-6.4949 2.7013-8.7528c2.2558-2.2579 5.4584-2.7318 7.1294-1.0593z" fill="#2d4c15" stroke-linejoin="bevel"/><path d="m26.0756 66.5519c4.7218 0 8.5496-2.3712 8.5496-5.2963 0-2.925-3.8278-5.2963-8.5496-5.2963-4.7219 0-8.5497 2.3713-8.5497 5.2963 0 2.9251 3.8278 5.2963 8.5497 5.2963z" fill="#3a2608"/><path d="m17.9158 51.4435c1.671-1.6725 4.8457-1.1986 7.1015 1.0593s2.7014 8.7528 2.7014 8.7528-6.4889-.446-8.7446-2.7039c-2.2558-2.2579-2.7292-5.4357-1.0583-7.1082z" fill="#7c6c11"/><path d="m93.8043 15.2613c2.1165 2.1186 1.5038 6.1605-1.3646 9.0316-2.8685 2.8712-11.0839 3.4287-11.0839 3.4287s.557-8.2232 3.4254-11.0944c2.8685-2.8711 6.9066-3.4844 9.0231-1.3659z" fill="#2d4c15" stroke-linejoin="bevel"/><path d="m83.4166 34.4396c5.983 0 10.8332-3.0078 10.8332-6.718s-4.8502-6.718-10.8332-6.718c-5.9831 0-10.8333 3.0078-10.8333 6.718s4.8502 6.718 10.8333 6.718z" fill="#3a2608"/><path d="m73.0846 15.2613c2.1165-2.1185 6.1546-1.5052 9.0231 1.3659 2.8684 2.8712 3.4254 11.0944 3.4254 11.0944s-8.2155-.5575-11.0839-3.4287c-2.8684-2.8711-3.4811-6.913-1.3646-9.0316z" fill="#7c6c11"/></g><path d="m80 56.9443c1.94.119 3.88.0595 5.7876-.2973 4.7853-.8921 8.5359-3.6873 10.6052-7.7612.7114-1.3678 1.2934-3.0331 1.0024-4.5793-.3234-1.814-2.522-3.0034-4.3327-2.0816-1.067.5353-1.6813 1.6652-1.6813 2.7655.0323 1.9923 1.746 3.4791 3.8153 3.717 6.3695.7434 10.6055-4.9065 11.5425-9.9913.453-2.5276.388-5.2039-.776-7.5233-1.002-1.8734-2.813-3.5386-4.979-4.1928" stroke-dasharray="3 3"/></g></svg>