<svg fill="none" height="120" viewBox="0 0 120 120" width="120" xmlns="http://www.w3.org/2000/svg"><g stroke="#000" stroke-miterlimit="10" stroke-width="2"><path d="m89.0959 34.9102c6.0451 6.0545 4.3134 17.5959-3.8727 25.7948-8.1861 8.1988-31.6424 9.7755-31.6424 9.7755s1.5743-23.4928 9.7604-31.6916 19.7095-9.9017 25.7547-3.8787z" fill="#2d4c15" stroke-linejoin="bevel"/><path d="m59.437 89.6847c17.0757 0 30.9183-8.598 30.9183-19.2042s-13.8426-19.2042-30.9183-19.2042c-17.0756 0-30.9182 8.598-30.9182 19.2042s13.8426 19.2042 30.9182 19.2042z" fill="#3a2608"/><path d="m29.9041 34.9102c6.0451-6.023 17.5686-4.2886 25.7547 3.9102s9.7604 31.6916 9.7604 31.6916-23.4563-1.5767-31.6424-9.7755-9.8863-19.7718-3.8727-25.8263z" fill="#7c6c11"/></g></svg>