<svg fill="none" height="120" viewBox="0 0 120 120" width="120" xmlns="http://www.w3.org/2000/svg"><g stroke="#000" stroke-miterlimit="10" stroke-width="2"><path d="m89.0008 79.8603h-57.0041c-10.8066 0-19.5623-8.8956-19.5623-19.875 0-10.9793 8.7557-19.8749 19.5623-19.8749h57.0303c10.8066 0 19.562 8.8956 19.562 19.8749-.026 10.9794-8.7817 19.875-19.5882 19.875z" fill="#ffb2f1"/><path d="m70.648 82.0241h-36.5478c-11.9635 0-21.6658-9.8573-21.6658-22.012 0-12.1548 9.7023-22.0121 21.6658-22.0121h36.5215v44.0241z" fill="#ff3f47"/><path d="m62.6022 56.4324h-8.0984v-8.2278h-7.0203v8.2278h-8.0721v7.1326h8.0721v8.2278h7.0203v-8.2278h8.0984z" fill="#fff"/></g></svg>