<svg fill="none" height="120" viewBox="0 0 120 120" width="120" xmlns="http://www.w3.org/2000/svg"><g stroke="#000" stroke-miterlimit="10" stroke-width="2"><path d="m60.1722 108.328c26.9669 0 48.8278-21.8612 48.8278-48.828s-21.8609-48.8278-48.8278-48.8278c-26.9668 0-48.8277 21.861-48.8277 48.8278s21.8609 48.828 48.8277 48.828z" fill="#4900d9"/><path d="m60.1722 97.271c20.8604 0 37.771-16.9107 37.771-37.771s-16.9106-37.771-37.771-37.771c-20.8603 0-37.771 16.9107-37.771 37.771s16.9107 37.771 37.771 37.771z" fill="#a7ebea" stroke-linejoin="bevel"/><path d="m46.4211 66.6424c-1.0929-2.0843-.305-4.6515 1.7793-5.7444l34.0854-18.0467c2.0843-1.093 4.6515-.305 5.7444 1.7792 1.093 2.0843.305 4.6515-1.7792 5.7445l-34.0854 18.0467c-2.0843 1.0929-4.6515.305-5.7445-1.7793z" fill="#ff3f47"/><path d="m60.1722 68.5488c4.9975 0 9.0488-4.0513 9.0488-9.0488s-4.0513-9.0488-9.0488-9.0488-9.0488 4.0513-9.0488 9.0488 4.0513 9.0488 9.0488 9.0488z" fill="#f4beed"/></g></svg>