<?xml version="1.0" encoding="utf-8"?>
<!-- Generator: Adobe Illustrator 23.0.2, SVG Export Plug-In . SVG Version: 6.00 Build 0)  -->
<svg version="1.1" id="Layer_1" xmlns="http://www.w3.org/2000/svg" xmlns:xlink="http://www.w3.org/1999/xlink" x="0px" y="0px"
	 viewBox="0 0 72 70" style="enable-background:new 0 0 72 70;" xml:space="preserve">
<path d="M24.7,34.5h5v20.8c0,0.4,0.3,0.7,0.7,0.7h8.5c0.4,0,0.7-0.3,0.7-0.7V34.6h5.8c0.4,0,0.7-0.3,0.7-0.7l0.9-7.6
	c0-0.4-0.2-0.8-0.7-0.8h-6.8v-4.8c0-1.4,0.8-2.2,2.3-2.2h4.4c0.4,0,0.7-0.3,0.7-0.7v-7c0-0.4-0.3-0.7-0.7-0.7h-6.3
	c-1,0-4.7,0.2-7.5,2.8c-3.2,2.9-2.7,6.4-2.6,7v5.6h-5.3c-0.4,0-0.7,0.3-0.7,0.7v7.5C24,34.2,24.3,34.5,24.7,34.5z"/>
</svg>
