<svg width="72" height="70" fill="none" xmlns="http://www.w3.org/2000/svg"><path d="M24.742 33.5h5.042v20.758c0 .41.332.742.742.742h8.55c.41 0 .742-.332.742-.742v-20.66h5.796a.742.742 0 0 0 .737-.658l.88-7.642a.742.742 0 0 0-.736-.827h-6.677v-4.79c0-1.445.778-2.177 2.311-2.177h4.366c.41 0 .742-.332.742-.742V9.747a.742.742 0 0 0-.742-.742h-6.017A5.899 5.899 0 0 0 40.203 9c-1.044 0-4.673.205-7.539 2.842-3.176 2.922-2.734 6.42-2.629 7.027v5.602h-5.293a.742.742 0 0 0-.742.742v7.544c0 .41.332.743.742.743z" fill="#000"/></svg>