<svg fill="none" height="120" viewBox="0 0 120 120" width="120" xmlns="http://www.w3.org/2000/svg"><g stroke="#000" stroke-miterlimit="10" stroke-width="2"><path d="m107.3 32.1957-24.8991 5.6783 5.8542-24.874z" fill="#4900d9"/><path d="m12 88.7274 24.8991-5.6783-5.8291 24.8739z" fill="#4900d9"/><g stroke-linejoin="bevel"><path d="m60.2907 61.1148c-.201-.2261-.402-.4271-.6281-.6533.201.2262.4271.4272.6281.6533z" fill="#a7ebea"/><path d="m59.6626 60.4615c-.0503 11.8592-6.5326 22.2108-16.1304 27.7132 2.4371-1.407 4.6733-3.1156 6.6582-5.0753 5.829-5.7788 9.4219-13.7938 9.4722-22.6379z" fill="#a7ebea"/><path d="m61.1198 62.0445c.201.2261.402.4773.603.7035-.201-.2262-.402-.4774-.603-.7035z" fill="#a7ebea"/><path d="m61.8484 62.8987c6.6331 8.1908 8.618 18.869 6.005 28.5674 2.613-9.6984.6281-20.3766-6.005-28.5674z" fill="#a7ebea"/><path d="m36.9493 69.7579c-2.7889 0-5.5778-.3769-8.2913-1.1306.7287 2.7386 1.809 5.3265 3.1658 7.7385 2.7889 4.8743 6.8341 8.9446 11.7084 11.7838 9.5978-5.5025 16.0801-15.8541 16.1304-27.7132-6.2814 6.2562-14.4973 9.3466-22.7133 9.3215z" fill="#ff3f47"/><path d="m37.0247 50.9894c-1.9597-1.9849-3.6683-4.2211-5.0753-6.6582-1.407 2.3869-2.4874 4.9748-3.2411 7.7134-.7287 2.6382-1.1055 5.4271-1.1055 8.2913 0 2.8643.3517 5.6532 1.0552 8.3165 2.7136.7286 5.5025 1.1055 8.2914 1.1306 8.2159.0252 16.4319-3.0652 22.7132-9.3214-8.8692-.0252-16.8591-3.6432-22.6379-9.4722z" fill="#fff"/><path d="m50.3411 37.7484c0-2.7889.3769-5.5778 1.1306-8.2914-2.7386.7287-5.3265 1.809-7.7385 3.1658-4.8743 2.7889-8.9446 6.8341-11.7838 11.7084 1.407 2.4371 3.1156 4.6733 5.0753 6.6582 5.7788 5.829 13.7938 9.447 22.6379 9.4722-6.2562-6.2813-9.3466-14.4973-9.3215-22.7132z" fill="#ff3f47"/><path d="m68.0544 29.5073c-2.6382-.7287-5.4271-1.1055-8.2913-1.1055-2.8643 0-5.6532.3517-8.3165 1.0552-.7286 2.7135-1.1055 5.5024-1.1306 8.2913-.0251 8.216 3.0653 16.4319 9.3214 22.7133.0252-8.8441 3.6432-16.8591 9.4722-22.6379 1.9849-1.9597 4.2211-3.6683 6.6582-5.0753-2.3869-1.407-4.9748-2.4874-7.7134-3.2411z" fill="#fff"/><path d="m87.4762 44.5321c-2.7889-4.8742-6.8341-8.9445-11.7084-11.7837-2.4371 1.407-4.6733 3.1155-6.6582 5.0753-5.829 5.7788-9.4471 13.7938-9.4722 22.6378 6.2813-6.231 14.4973-9.3465 22.7132-9.3214 2.7889 0 5.5778.3769 8.2914 1.1055-.7036-2.7135-1.7839-5.3266-3.1658-7.7135z" fill="#ff3f47"/><path d="m59.6626 60.4615c.201.201.4271.4272.6281.6533.2764.3015.5779.6281.8291.9296.201.2262.402.4774.603.7035.0503.0503.0754.1005.1257.1508 6.633 8.1908 8.6179 18.869 6.0049 28.5674.7286-2.7135 1.1055-5.5024 1.1306-8.2913 0-8.216-3.0904-16.4319-9.3214-22.7133z" fill="#a7ebea"/><path d="m90.642 52.2707c-2.7136-.7286-5.5025-1.1055-8.2914-1.1055-8.2159-.0251-16.4319 3.0653-22.7132 9.3215 8.8441.0251 16.8591 3.6431 22.6379 9.4722 1.9597 1.9849 3.6682 4.221 5.0752 6.6582 1.4071-2.3869 2.4874-4.9748 3.2412-7.7135.7286-2.6381 1.1055-5.427 1.1055-8.2913.0251-2.9145-.3517-5.7034-1.0552-8.3416z" fill="#fff"/><path d="m82.3004 69.9338c-5.7788-5.8291-13.7686-9.4471-22.6378-9.4723 6.231 6.2814 9.3214 14.4973 9.2963 22.6881 0 2.7889-.3769 5.5778-1.1306 8.2914 2.7386-.7287 5.3265-1.8091 7.7385-3.1658 4.8743-2.7889 8.9446-6.8341 11.7838-11.7084-1.3819-2.412-3.0904-4.6481-5.0502-6.633z" fill="#ff3f47"/><path d="m61.8485 62.8987c-.0503-.0503-.0754-.1005-.1257-.1508-.201-.2512-.402-.4773-.603-.7035-.2764-.3266-.5527-.6281-.8291-.9296-.201-.2261-.402-.4271-.6281-.6533-.0252 8.8441-3.6432 16.8591-9.4722 22.6379-1.9849 1.9597-4.2211 3.6683-6.6582 5.0753 4.6984 2.7386 10.1757 4.3215 16.0047 4.3466 2.8643 0 5.6532-.3517 8.3165-1.0552 2.613-9.6984.6281-20.3766-6.0049-28.5674z" fill="#fff"/><path d="m60.2907 61.1148c.2764.3015.5779.6281.8291.9296-.2764-.3266-.5527-.6281-.8291-.9296z" fill="#a7ebea"/><path d="m61.7228 62.7479c.0503.0503.0754.1005.1257.1508-.0503-.0503-.0754-.1005-.1257-.1508z" fill="#a7ebea"/></g></g></svg>