<svg width="334" height="378" fill="none" xmlns="http://www.w3.org/2000/svg"><g clip-path="url(#clip0)"><path d="M125.088 359.562a594.297 594.297 0 0 0-27.507 61.408c-.866 2.278-1.821 4.671-3.788 6.119-1.557 1.126-3.54 1.479-5.45 1.671-10.245 1.038-20.5-1.411-30.444-4.09-40.103-10.8-79.096-25.321-118.015-39.827-.919-.343-1.941-.779-2.305-1.692a3.557 3.557 0 0 1 .099-2.175 292.285 292.285 0 0 1 37.056-84.161" fill="#EC504F"/><path d="M125.088 359.562a594.297 594.297 0 0 0-27.507 61.408c-.866 2.278-1.821 4.671-3.788 6.119-1.557 1.126-3.54 1.479-5.45 1.671-10.245 1.038-20.5-1.411-30.444-4.09-40.103-10.8-79.096-25.321-118.015-39.827-.919-.343-1.941-.779-2.305-1.692a3.557 3.557 0 0 1 .099-2.175 292.285 292.285 0 0 1 37.056-84.161" stroke="#000" stroke-width="2"/><path d="M322.286 272.76a8.911 8.911 0 0 1 7.562 4.941c1.557 3.269.934 7.193-.462 10.535a25.123 25.123 0 0 1-9.628 11.418c-.82.519-1.899.991-2.709.457-.69-.457-.804-1.401-.856-2.227-.452-7.541-5.828-25.124 6.093-25.124z" fill="#FFE945" stroke="#000" stroke-width="2"/><path d="M221.866 431.018c20.594-23.552 36.05-34.207 52.009-56.887 1.443-2.076 2.995-4.054 5.278-5.092 2.284-1.038 4.78-1.495 7.22-2.076 5.262-1.251 11.687-4.266 14.532-8.823l-27.346-36.086c-3.504-2.263-4.734-6.902-4.443-11.065.291-4.162 1.785-8.138 2.501-12.248.574-3.311.642-6.69.203-10.022-.291-2.206-.856-4.479-2.31-6.166-1.453-1.687-5.579-5.096-10.011-4.063-6.628 1.557-6.228 8.226-6.316 11.552-.291 11.232-8.72 20.584-11.377 31.498a31.192 31.192 0 0 0 .26 15.819c1.126 3.924 3.96 6.939 2.823 11.335-.586 2.289-1.988 4.267-3.399 6.156-13.775 18.445-32.36 31.695-47.748 48.516" fill="#FFE945"/><path d="M221.866 431.018c20.594-23.552 36.05-34.207 52.009-56.887 1.443-2.076 2.995-4.054 5.278-5.092 2.284-1.038 4.78-1.495 7.22-2.076 5.262-1.251 11.687-4.266 14.532-8.823l-27.346-36.086c-3.504-2.263-4.734-6.902-4.443-11.065.291-4.162 1.785-8.138 2.501-12.248.574-3.311.642-6.69.203-10.022-.291-2.206-.856-4.479-2.31-6.166-1.453-1.687-5.579-5.096-10.011-4.063-6.628 1.557-6.228 8.226-6.316 11.552-.291 11.232-8.72 20.584-11.377 31.498a31.192 31.192 0 0 0 .26 15.819c1.126 3.924 3.96 6.939 2.823 11.335-.586 2.289-1.988 4.267-3.399 6.156-13.775 18.445-32.36 31.695-47.748 48.516" stroke="#000" stroke-width="2"/><path d="M308.611 358.114h-26.443c-5.782 0-10.469-4.687-10.469-10.468v-68.778c0-5.781 4.687-10.468 10.469-10.468h26.443c5.781 0 10.468 4.687 10.468 10.468v68.778c0 5.781-4.687 10.468-10.468 10.468z" fill="#8C8C8C" stroke="#000" stroke-width="2" stroke-linecap="round"/><path d="M306.897 346.26h-23.022a7.417 7.417 0 0 1-7.417-7.416v-58.662a7.417 7.417 0 0 1 7.417-7.417h23.022a7.417 7.417 0 0 1 7.417 7.417v58.662a7.416 7.416 0 0 1-7.417 7.416zm-10.793 9.114a3.051 3.051 0 1 1-.001-6.103 3.051 3.051 0 0 1 .001 6.103z" fill="#fff" stroke="#000" stroke-width="2" stroke-linecap="round"/><path d="M312.411 306.687a22.074 22.074 0 0 0-5.128 5.802c-1.557 2.523-2.522 5.855-.944 8.351 1.038 1.625 2.968 2.512 4.883 2.652 1.93.06 3.85-.294 5.631-1.038a33.11 33.11 0 0 0 11.885-7.582 12.573 12.573 0 0 0 2.668-3.472c2.019-4.287-.586-10.432-5.621-11.008-4.115-.478-10.26 3.83-13.374 6.295zm2.505 38.582a16.891 16.891 0 0 0-3.913 4.427c-1.178 1.926-1.925 4.469-.721 6.374a4.801 4.801 0 0 0 3.726 2.039 10.475 10.475 0 0 0 4.297-.789 25.314 25.314 0 0 0 9.072-5.787 9.768 9.768 0 0 0 2.025-2.662c1.557-3.275-.447-7.961-4.293-8.403-3.129-.368-7.816 2.922-10.193 4.801z" fill="#FFE945" stroke="#000" stroke-width="2"/><path d="M306.54 334.204c-1.079 3.228-.104 7.365 2.948 8.859 1.957.966 4.292.675 6.394.094a26.643 26.643 0 0 0 16.416-13.266c3.893-7.515-2.45-12.061-9.586-9.669-5.781 1.895-14.189 8.04-16.172 13.982z" fill="#FFE945" stroke="#000" stroke-width="2"/><path d="M196.222 77.456c4.806 5.387 9.067 11.386 14.838 15.725 5.771 4.34 13.645 6.81 20.298 3.986 3.114-1.318 5.657-3.633 7.915-6.155 7.448-8.263 9.129-19.079 13.162-29.443 1.37-3.524-1.178-7.427-4.266-9.607C171.637-2.128 60.592-16.25-25.531 22.5c-9.575 4.308-22.835 11.574-22.508 23.817.3 11.418 13.572 2.916 22.317 4.38 18.004 3.026 8.449 23.661 21.154 10.525C17.567 38.308 55.984 35.064 86.32 35.915c36.112 1.007 84.233 10.582 108.59 39.745 6.617 7.92 3.778 20.044 8.434 28.924 2.735 5.216 8.854 8.179 14.734 7.94 8.823-.353 16.821-7.914 17.646-16.722.384-4.074-1.261-8.947-5.221-9.99-2.227-.592-4.64.233-6.467 1.634-1.827 1.402-3.186 3.317-4.5 5.19" fill="#FFE945"/><path d="M196.222 77.456c4.806 5.387 9.067 11.386 14.838 15.725 5.771 4.34 13.645 6.81 20.298 3.986 3.114-1.318 5.657-3.633 7.915-6.155 7.448-8.263 9.129-19.079 13.162-29.443 1.37-3.524-1.178-7.427-4.266-9.607C171.637-2.128 60.592-16.25-25.531 22.5c-9.575 4.308-22.835 11.574-22.508 23.817.3 11.418 13.572 2.916 22.317 4.38 18.004 3.026 8.449 23.661 21.154 10.525C17.567 38.308 55.984 35.064 86.32 35.915c36.112 1.007 84.233 10.582 108.59 39.745 6.617 7.92 3.778 20.044 8.434 28.924 2.735 5.216 8.854 8.179 14.734 7.94 8.823-.353 16.821-7.914 17.646-16.722.384-4.074-1.261-8.947-5.221-9.99-2.227-.592-4.64.233-6.467 1.634-1.827 1.402-3.186 3.317-4.5 5.19" stroke="#000" stroke-width="2"/><path d="M264.756 77.44c-.576-5.101-3.753-9.57-7.453-13.135a12.92 12.92 0 0 0-2.984-2.294c-3.976-2.035-9.228.093-11.496 3.939-2.268 3.846-1.925 8.823-.067 12.881 2.05 4.48 7.385 12.212 13.021 11.76 6.026-.477 9.571-7.872 8.979-13.15z" fill="#FFE945" stroke="#000" stroke-width="2"/><path d="M260.178 88.692c-.576-5.107-3.758-9.57-7.453-13.136a12.75 12.75 0 0 0-2.984-2.294c-3.976-2.035-9.233.093-11.496 3.94-2.263 3.845-1.925 8.822-.067 12.88 2.05 4.48 7.385 12.207 13.016 11.761 6.026-.477 9.576-7.878 8.984-13.151z" fill="#FFE945" stroke="#000" stroke-width="2"/><path d="M247.571 89.704c-1.448-2.647-3.218-5.242-5.787-6.835-4.853-3.005-12.036-1.2-14.89 3.742-2.403 4.152-1.744 9.393-.493 14.039 1.868 6.939 8.553 16.966 17.184 13.333 9.908-4.173 8.076-16.81 3.986-24.28z" fill="#FFE945" stroke="#000" stroke-width="2"/><path d="M249.098 153.151c2.138 1.843 4.624 3.68 7.442 3.597 3.695-.109 6.591-3.685 7.038-7.354.446-3.67-.992-7.308-2.772-10.551-3.218-5.85-19.722-25.603-24.481-30.289-5.657-5.569-9.124-8.901-20.843 1.993-3.55 3.301 25.919 35.982 33.616 42.604z" fill="#FFE945" stroke="#000" stroke-width="2"/><path d="M219.551 92.652c1.313-1.89 2.668-3.81 4.5-5.19 1.832-1.38 4.24-2.227 6.466-1.635 3.96 1.038 5.606 5.916 5.222 9.99-.836 8.823-8.823 16.37-17.646 16.723-5.881.238-12-2.725-14.735-7.941-4.671-8.88-3.752-19.722-8.433-28.924" fill="#FFE945"/><path d="M219.551 92.652c1.313-1.89 2.668-3.81 4.5-5.19 1.832-1.38 4.24-2.227 6.466-1.635 3.96 1.038 5.606 5.916 5.222 9.99-.836 8.823-8.823 16.37-17.646 16.723-5.881.238-12-2.725-14.735-7.941-4.671-8.88-3.752-19.722-8.433-28.924" stroke="#000" stroke-width="2"/><path d="M226.817 85.894c.238-1.588-.307-3.186-.986-4.64a24.647 24.647 0 0 0-16.214-13.265" fill="#FFE945"/><path d="M226.817 85.894c.238-1.588-.307-3.186-.986-4.64a24.647 24.647 0 0 0-16.214-13.265" stroke="#000" stroke-width="2"/></g><defs><clipPath id="clip0"><path fill="#fff" transform="matrix(-1 0 0 1 334 0)" d="M0 0H334V378H0z"/></clipPath></defs></svg>