<svg width="124" height="120" fill="none" xmlns="http://www.w3.org/2000/svg"><g clip-path="url(#clip0)" stroke="#000" stroke-width="2" stroke-miterlimit="10"><path d="M32.6 60.5h49.92M72.096 39.977v41.046M61.72 42.005v36.99M51.1 45.059v30.882M40.21 49.603v21.794"/><path d="M32.6 60.5s-8.54-.098-13.898-5.448c-5.36-5.35-5.457-13.878-5.457-13.878s8.564.123 13.899 5.449C32.478 51.949 32.6 60.5 32.6 60.5zm0 0s-.097 8.527-5.456 13.877c-5.36 5.35-13.9 5.449-13.9 5.449s.099-8.527 5.458-13.878C24.06 60.598 32.6 60.5 32.6 60.5zm49.92-21.182v42.364C99.65 77.382 109.73 60.5 109.73 60.5S99.649 43.618 82.52 39.318zm9.519 18.959a2.849 2.849 0 0 1-2.863-2.859 2.849 2.849 0 0 1 2.863-2.858c1.59 0 2.863 1.27 2.863 2.858-.025 1.564-1.297 2.859-2.863 2.859z" fill="#2D4C15"/></g><defs><clipPath id="clip0"><path fill="#fff" transform="translate(13 39)" d="M0 0H97V43H0z"/></clipPath></defs></svg>