<svg fill="none" height="120" viewBox="0 0 120 120" width="120" xmlns="http://www.w3.org/2000/svg"><g stroke="#000" stroke-miterlimit="10" stroke-width="2"><path d="m60.8393 56.0204-4.2611 4.309 38.1607 38.5894 4.2611-4.309z" fill="#efebce"/><path d="m44.508 67.3093c12.8246 0 23.2209-10.5132 23.2209-23.4819 0-12.9686-10.3963-23.4818-23.2209-23.4818-12.8245 0-23.2209 10.5132-23.2209 23.4818 0 12.9687 10.3964 23.4819 23.2209 23.4819z" fill="#f4beed"/><path d="m66.229 30.7188-34.684 35.0738c-2.0891 2.1125-5.4905 2.1125-7.6064 0-2.089-2.1126-2.089-5.5523 0-7.6919l34.6841-35.0467c2.089-2.1125 5.4905-2.1125 7.6063 0 2.0891 2.1126 2.0891 5.5523 0 7.6648z" fill="#e83c35"/></g></svg>