<svg fill="none" height="120" width="120" xmlns="http://www.w3.org/2000/svg"><g stroke="#000" stroke-miterlimit="10" stroke-width="2"><path d="M90.727 29.299c4.121-4.121 4.121-10.808 0-14.93-4.121-4.12-10.808-4.12-14.93 0a10.545 10.545 0 0 0-.388 14.515l-46.55 46.499c-4.148-3.732-10.524-3.577-14.516.389-4.12 4.12-4.12 10.808 0 14.93 4.122 4.12 10.809 4.12 14.93 0-4.121 4.12-4.121 10.807 0 14.929 4.121 4.121 10.808 4.121 14.93 0 4.12-4.122 4.12-10.809 0-14.93L90.7 44.202c4.121 4.122 10.808 4.122 14.93 0 4.121-4.12 4.121-10.808 0-14.93-4.096-4.12-10.783-4.12-14.904.027z" fill="#6b5d24"/><path d="M54.933 85.673c-2.048 1.451-4.25 2.67-6.713 2.98-1.322.182-2.514-.492-1.97-1.97.233-.621.7-1.088 1.14-1.58.441-.493.856-1.037.934-1.685.18-2.048-2.437-1.944-3.759-1.866a11.884 11.884 0 0 1-3.317-.26c-.726-.18-1.504-.44-1.944-1.036-.596-.778-.493-1.892 0-2.722.492-.83 1.322-1.4 2.177-1.866 3.914-2.1 8.501-2.125 12.778-2.8 3.343-.543 6.79-1.554 9.175-3.939 3.007-2.98 4.018-8.372 7.931-10.42.778-.414 1.919-.492 2.385.26 1.426 2.28-.855 5.52-1.918 7.542a55.527 55.527 0 0 1-4.95 7.776 55.337 55.337 0 0 1-8.295 8.76c-1.166.882-2.384 1.893-3.654 2.826z" fill="#f1f652"/><path d="M53.118 46.82c2.126-2.851 5.184-5.236 7.984-6.739.959-.518 2.021-.959 3.136-.881 2.618.181 3.991 4.043 2.695 6.117-.596.959-1.529 1.685-2.41 2.384-.907.7-1.814 1.426-2.41 2.385-.675 1.14-.83 2.488-1.322 3.732-.622 1.607-1.789 3.007-3.344 3.733-1.555.725-3.473.7-4.925-.208-1.451-.907-2.203-2.54-2.047-4.199.207-2.255 1.218-4.406 2.643-6.324z" fill="#00e9a7"/></g></svg>