<svg width="120" height="120" fill="none" xmlns="http://www.w3.org/2000/svg"><path d="M90.908 29.123c4.143-4.144 4.143-10.87 0-15.015-4.144-4.144-10.868-4.144-15.011 0a10.608 10.608 0 0 0-.391 14.598L28.7 75.471c-4.17-3.754-10.58-3.597-14.593.39-4.144 4.146-4.144 10.871 0 15.016 4.143 4.144 10.867 4.144 15.01 0-4.143 4.144-4.143 10.87 0 15.014 4.144 4.145 10.868 4.145 15.011 0 4.144-4.144 4.144-10.87 0-15.014l46.753-46.765c4.143 4.145 10.867 4.145 15.01 0 4.144-4.145 4.144-10.87 0-15.015-4.117-4.145-10.84-4.145-14.984.026z" fill="#A7EBEA" stroke="#000" stroke-width="2" stroke-miterlimit="10" stroke-linejoin="bevel"/></svg>