<svg width="46" height="38" fill="none" xmlns="http://www.w3.org/2000/svg"><path d="M46 4.734a18.842 18.842 0 0 1-5.42 1.486A9.453 9.453 0 0 0 44.73.999a18.905 18.905 0 0 1-5.994 2.29 9.422 9.422 0 0 0-6.889-2.98c-6.093 0-10.57 5.684-9.194 11.586-7.841-.393-14.795-4.15-19.45-9.86-2.473 4.242-1.282 9.79 2.919 12.6a9.398 9.398 0 0 1-4.272-1.18c-.104 4.372 3.03 8.462 7.569 9.373a9.46 9.46 0 0 1-4.263.16 9.444 9.444 0 0 0 8.817 6.554A18.976 18.976 0 0 1 0 33.452a26.717 26.717 0 0 0 14.467 4.24c17.522 0 27.422-14.8 26.824-28.072A19.213 19.213 0 0 0 46 4.734z" fill="#000"/></svg>