<svg fill="none" height="120" viewBox="0 0 124 120" width="124" xmlns="http://www.w3.org/2000/svg"><g stroke="#000" stroke-miterlimit="10"><g stroke-width="2"><path d="m63.9916 42.5995h-3.1177l-1.1664-9.8128h5.4504z" fill="#3a2608"/><path d="m108.94 79.7147s-18.2349 8.1439-29.0908-2.6257c0 0 20.1193 1.1571 20.2088-16.4882l-2.5119-2.2251c-8.5008 14.7081-30.549 10.5693-28.6874-12.4608-.0448-2.3141-1.3681-4.3612-3.2971-5.4071-1.8616-1.0235-4.2616-1.0458-6.1232 0-1.9514 1.0681-3.2972 3.1597-3.2972 5.4961 1.8392 22.9856-20.2987 26.9909-28.6873 12.3495l-2.5121 2.2251c.0897 17.6453 20.209 16.4882 20.209 16.4882-10.8559 10.7919-29.0911 2.648-29.0911 2.648l-3.7681 3.7604c12.1343 14.9307 41.6964 12.8835 50.1972-1.4018 8.6129 14.3966 38.1752 16.2657 50.1972 1.4018z" fill="#7c6c11"/><path d="m52.0591 58.5537c1.3457 1.335.9644 3.8717-.8523 5.674-1.8168 1.8024-7.0429 2.1584-7.0429 2.1584s.3589-5.1845 2.1757-6.9869c1.8167-1.8024 4.3737-2.1806 5.7195-.8455z" fill="#2d4c15" stroke-linejoin="bevel"/><path d="m45.4648 70.6139c3.8029 0 6.8858-1.8929 6.8858-4.2278s-3.0829-4.2277-6.8858-4.2277c-3.803 0-6.8859 1.8928-6.8859 4.2277s3.0829 4.2278 6.8859 4.2278z" fill="#3a2608"/><path d="m38.893 58.5537c1.3457-1.3351 3.9027-.9569 5.7195.8455s2.1756 6.9869 2.1756 6.9869-5.226-.356-7.0428-2.1584c-1.8168-1.8023-2.1981-4.339-.8523-5.674z" fill="#7c6c11"/><path d="m93.5088 27.2238c1.7046 1.6911 1.2112 4.9175-1.0991 7.2094-2.3102 2.2919-8.9269 2.7369-8.9269 2.7369s.4486-6.5641 2.7588-8.856c2.3103-2.2919 5.5625-2.7814 7.2672-1.0903z" fill="#2d4c15" stroke-linejoin="bevel"/><path d="m85.1426 42.5327c4.8187 0 8.7251-2.4009 8.7251-5.3625 0-2.9617-3.9064-5.3626-8.7251-5.3626-4.8188 0-8.7251 2.4009-8.7251 5.3626 0 2.9616 3.9063 5.3625 8.7251 5.3625z" fill="#3a2608"/><path d="m76.8212 27.2238c1.7047-1.6911 4.957-1.2016 7.2672 1.0903s2.7588 8.856 2.7588 8.856-6.6167-.445-8.9269-2.7369-2.8037-5.5183-1.0991-7.2094z" fill="#7c6c11"/></g><path d="m86.652 55.7228c1.4465.0924 2.8931.0462 4.3155-.231 3.5681-.693 6.3648-2.8643 7.9078-6.0289.5304-1.0625.9643-2.3561.7473-3.5572-.241-1.4091-1.8805-2.333-3.2306-1.617-.7956.4158-1.2536 1.2936-1.2536 2.1483.0241 1.5476 1.3019 2.7025 2.8448 2.8873 4.7498.5775 7.9078-3.8113 8.6068-7.7613.338-1.9634.289-4.0423-.578-5.844-.748-1.4553-2.098-2.7488-3.713-3.257" stroke-dasharray="3 3"/><path d="m57.1057 75.9542c.2019.5118.314 1.0903.2916 1.6466-.0673 1.2015-.6953 2.2919-1.5028 3.1597-1.0093 1.0458-2.3775 1.8246-3.6111 2.5811-1.4131.8678-2.8934 1.6244-4.4859 2.0249-.6729.178-1.3907.2893-2.086.178-.6953-.089-1.3906-.4228-1.8168-1.0013-.2018-.267-.3364-.6008-.3588-.9346-.0449-1.4686 2.0859-2.4254 2.9382-3.4044 1.4131-1.6466 2.3775-3.7382 3.9252-5.2736.7402-.712 1.6598-1.2906 2.6691-1.4241 1.0317-.1335 2.1084.2003 2.9158.8678.4935.4228.8748.9568 1.1215 1.5799z" fill="#f4beed" stroke-width="2"/><path d="m82.294 86.7906s-3.0728-.4451-3.2747 1.4685c-.2018 1.9359 1.6598 3.7828 3.656 3.716 2.0187-.089 4.8672-.8233 5.0467-2.3141.157-1.4686-4.3065-2.8482-5.428-2.8704z" fill="#f1f652" stroke-width="2"/></g></svg>