<svg fill="none" height="120" width="120" xmlns="http://www.w3.org/2000/svg"><g stroke="#000" stroke-width="2"><path d="M62.924 66.141V91.95l19.636 19.636v-25.81L62.924 66.142zm-5.095 0L38.193 85.777v25.809L57.829 91.95zM38.193 9.167v25.809l19.636 19.636v-25.81L38.193 9.168zm44.367 0L62.924 28.803V54.61L82.56 34.977V9.166zm29.026 29.026h-25.81L66.142 57.829H91.95zM91.95 62.923H66.141L85.777 82.56h25.809L91.95 62.924zm-63.147 0L9.167 82.56h25.809l19.636-19.636h-25.81zM9.167 38.194L28.803 57.83H54.61L34.977 38.193H9.166z" fill="#a7ebea"/><path d="M17.519 17.489v8.667h8.667V17.49H17.52zm77.077 0v8.667h8.668V17.49h-8.668zM17.52 94.566v8.668h8.667v-8.668zm77.077 0v8.668h8.668v-8.668z" fill="#0a25e8"/></g></svg>