<svg fill="none" height="120" viewBox="0 0 120 120" width="120" xmlns="http://www.w3.org/2000/svg"><g stroke="#000" stroke-miterlimit="10" stroke-width="2"><path d="m20.515 91.736h78.2362l3.2488-8.2909h-84.7604z" fill="#a7ebea" stroke-linejoin="bevel"/><path d="m38.463 42.7829h42.3402c3.9145 0 7.2698 2.746 8.042 6.5482l6.7904 34.114h-72.005l6.7904-34.114c.7456-3.8022 4.1275-6.5482 8.042-6.5482z" fill="#4900d9"/><path d="m59.6331 42.7829c3.7649 0 6.817-3.0263 6.817-6.7594 0-3.7332-3.0521-6.7595-6.817-6.7595-3.765 0-6.8171 3.0263-6.8171 6.7595 0 3.7331 3.0521 6.7594 6.8171 6.7594z" fill="#e83c35" stroke-linejoin="bevel"/><path d="m89.8039 54.1102c-7.536 0-7.536 6.469-15.0721 6.469-7.536 0-7.536-6.469-15.072-6.469-7.5361 0-7.5361 6.469-15.0987 6.469-7.5627 0-7.5627-6.469-15.0987-6.469" stroke-linejoin="bevel"/><path d="m29.4624 54.1102.9586-4.7791c.7457-3.8022 4.1276-6.5482 8.042-6.5482h42.3403c3.9144 0 7.2697 2.746 8.0419 6.5482l.9587 4.7791c-7.536 0-7.536 6.469-15.0721 6.469-7.536 0-7.536-6.469-15.072-6.469-7.5361 0-7.5361 6.469-15.0987 6.469-7.5627 0-7.5627-6.469-15.0987-6.469z" fill="#f4beed"/></g></svg>