<svg width="120" height="120" fill="none" xmlns="http://www.w3.org/2000/svg"><path d="M59.7 99.4C37.786 99.4 20 81.614 20 59.7S37.786 20 59.7 20s39.7 17.786 39.7 39.7-17.762 39.7-39.7 39.7zm0-49.254a9.544 9.544 0 0 0-9.553 9.554 9.544 9.544 0 0 0 9.553 9.553 9.544 9.544 0 0 0 9.553-9.553 9.544 9.544 0 0 0-9.553-9.553z" fill="#4900D9" stroke="#000" stroke-width="2" stroke-miterlimit="10"/><path d="M91.144 47.198c-1.58-3.963-7.76-4.93-10.544-7.808-2.902-2.996-3.727-9.152-7.478-10.78-3.774-1.628-8.822 2.005-12.974 1.934-4.01-.07-8.94-3.892-12.903-2.335-3.963 1.58-4.93 7.76-7.808 10.544-2.996 2.901-9.152 3.727-10.78 7.478-1.628 3.774 2.005 8.822 1.934 12.974-.07 4.01-3.892 8.94-2.335 12.903 1.557 3.963 7.76 4.93 10.544 7.808 2.902 2.995 3.727 9.152 7.478 10.78 3.774 1.627 8.822-2.005 12.974-1.935 4.01.071 8.94 3.893 12.903 2.336 3.963-1.58 4.93-7.761 7.808-10.544 2.996-2.902 9.152-3.727 10.78-7.478 1.628-3.774-2.005-8.822-1.934-12.974.07-4.01 3.915-8.94 2.335-12.903z" stroke="#000" stroke-width="2" stroke-miterlimit="10"/><path d="M88.832 60.125c-.07 4.175 3.562 9.223 1.934 12.974-1.627 3.774-7.784 4.576-10.78 7.477-2.877 2.807-3.845 8.964-7.808 10.544-3.962 1.58-8.892-2.264-12.903-2.335-4.175-.07-9.223 3.562-12.974 1.934-3.774-1.627-4.576-7.784-7.477-10.78-2.807-2.878-8.964-3.845-10.544-7.808-1.58-3.963 2.264-8.893 2.335-12.903.07-4.175-3.562-9.223-1.934-12.974 1.627-3.774 7.784-4.576 10.78-7.477 2.878-2.807 3.845-8.964 7.808-10.544 3.963-1.58 8.893 2.264 12.903 2.335 4.175.07 9.223-3.562 12.974-1.934 3.774 1.627 4.576 7.784 7.477 10.78 2.807 2.877 8.964 3.845 10.544 7.807 1.557 3.94-2.288 8.87-2.335 12.904zM59.7 50.147a9.544 9.544 0 0 0-9.553 9.553 9.544 9.544 0 0 0 9.553 9.553 9.544 9.544 0 0 0 9.553-9.553 9.544 9.544 0 0 0-9.553-9.553z" fill="#F4BEED" stroke="#000" stroke-width="2" stroke-miterlimit="10"/></svg>