<svg fill="none" height="120" viewBox="0 0 120 120" width="120" xmlns="http://www.w3.org/2000/svg"><g stroke="#000" stroke-miterlimit="10" stroke-width="2"><path d="m59.7003 54.9971c9.0648 0 16.4133-7.3485 16.4133-16.4133 0-9.0649-7.3485-16.4134-16.4133-16.4134-9.0649 0-16.4134 7.3485-16.4134 16.4134 0 9.0648 7.3485 16.4133 16.4134 16.4133z" fill="#f1f652"/><path d="m59.7002 29.2932c3.947 0 7.1466-3.1996 7.1466-7.1466s-3.1996-7.1466-7.1466-7.1466c-3.9469 0-7.1466 3.1996-7.1466 7.1466s3.1997 7.1466 7.1466 7.1466z" fill="#e83c35" stroke-linejoin="bevel"/><path d="m59.7003 69.8144c9.0648 0 16.4133-7.3485 16.4133-16.4134 0-9.0648-7.3485-16.4133-16.4133-16.4133-9.0649 0-16.4134 7.3485-16.4134 16.4133 0 9.0649 7.3485 16.4134 16.4134 16.4134z" fill="#00e9a7"/><path d="m59.7003 106-18.7003-47.6678h37.4243z" fill="#4900d9"/></g></svg>