<svg width="342" height="379" fill="none" xmlns="http://www.w3.org/2000/svg"><path d="M131.634 360.562a594.268 594.268 0 0 0-27.507 61.408c-.867 2.278-1.822 4.671-3.789 6.119-1.557 1.126-3.54 1.479-5.45 1.671-10.244 1.038-20.5-1.411-30.444-4.089C24.341 414.87-14.65 400.349-53.57 385.843c-.918-.343-1.94-.779-2.304-1.692a3.557 3.557 0 0 1 .099-2.175 292.282 292.282 0 0 1 37.056-84.161" fill="#EC504F"/><path d="M131.634 360.562a594.268 594.268 0 0 0-27.507 61.408c-.867 2.278-1.822 4.671-3.789 6.119-1.557 1.126-3.54 1.479-5.45 1.671-10.244 1.038-20.5-1.411-30.444-4.089C24.341 414.87-14.65 400.349-53.57 385.843c-.918-.343-1.94-.779-2.304-1.692a3.557 3.557 0 0 1 .099-2.175 292.282 292.282 0 0 1 37.056-84.161" stroke="#000" stroke-width="3"/><path d="M328.831 273.76a8.905 8.905 0 0 1 7.562 4.941c1.557 3.269.934 7.193-.462 10.535a25.12 25.12 0 0 1-9.627 11.418c-.82.519-1.9.991-2.709.457-.691-.457-.805-1.401-.857-2.227-.451-7.541-5.828-25.124 6.093-25.124z" fill="#FFE945" stroke="#000" stroke-width="3"/><path d="M228.412 432.018c20.594-23.552 36.049-34.207 52.009-56.887 1.442-2.076 2.994-4.054 5.278-5.092 2.283-1.038 4.78-1.495 7.219-2.076 5.263-1.251 11.688-4.266 14.532-8.823l-27.346-36.086c-3.503-2.263-4.733-6.902-4.443-11.065.291-4.162 1.786-8.138 2.502-12.248a33.28 33.28 0 0 0 .202-10.022c-.29-2.206-.856-4.479-2.309-6.166-1.453-1.686-5.579-5.096-10.012-4.063-6.627 1.557-6.228 8.226-6.316 11.552-.291 11.232-8.719 20.584-11.376 31.498a31.185 31.185 0 0 0 .259 15.82c1.126 3.923 3.96 6.939 2.823 11.334-.586 2.289-1.987 4.267-3.399 6.156-13.774 18.445-32.36 31.695-47.748 48.516" fill="#FFE945"/><path d="M228.412 432.018c20.594-23.552 36.049-34.207 52.009-56.887 1.442-2.076 2.994-4.054 5.278-5.092 2.283-1.038 4.78-1.495 7.219-2.076 5.263-1.251 11.688-4.266 14.532-8.823l-27.346-36.086c-3.503-2.263-4.733-6.902-4.443-11.065.291-4.162 1.786-8.138 2.502-12.248a33.28 33.28 0 0 0 .202-10.022c-.29-2.206-.856-4.479-2.309-6.166-1.453-1.686-5.579-5.096-10.012-4.063-6.627 1.557-6.228 8.226-6.316 11.552-.291 11.232-8.719 20.584-11.376 31.498a31.185 31.185 0 0 0 .259 15.82c1.126 3.923 3.96 6.939 2.823 11.334-.586 2.289-1.987 4.267-3.399 6.156-13.774 18.445-32.36 31.695-47.748 48.516" stroke="#000" stroke-width="3"/><path d="M315.156 359.114h-26.443c-5.781 0-10.468-4.687-10.468-10.468v-68.778c0-5.781 4.687-10.468 10.468-10.468h26.443c5.781 0 10.468 4.687 10.468 10.468v68.778c0 5.781-4.687 10.468-10.468 10.468z" fill="#8C8C8C" stroke="#000" stroke-width="3" stroke-linecap="round"/><path d="M312.688 341h-21.286c-3.787 0-6.857-2.937-6.857-6.559v-51.882c0-3.622 3.07-6.559 6.857-6.559h21.286c3.787 0 6.857 2.937 6.857 6.559v51.882c0 3.622-3.07 6.559-6.857 6.559z" fill="#fff" stroke="#000" stroke-width="3" stroke-linecap="round"/><path d="M302.649 353.103a3.052 3.052 0 1 1 0-6.104 3.052 3.052 0 0 1 0 6.104z" fill="#fff" stroke="#000" stroke-width="2" stroke-linecap="round"/><path d="M318.956 307.687a22.088 22.088 0 0 0-5.127 5.802c-1.557 2.523-2.523 5.855-.945 8.351 1.038 1.625 2.969 2.512 4.884 2.652 1.929.06 3.849-.294 5.631-1.038a33.12 33.12 0 0 0 11.885-7.582 12.558 12.558 0 0 0 2.668-3.472c2.018-4.287-.587-10.432-5.621-11.008-4.116-.478-10.261 3.83-13.375 6.295zm2.506 38.582a16.877 16.877 0 0 0-3.914 4.427c-1.178 1.926-1.925 4.469-.721 6.374a4.805 4.805 0 0 0 3.726 2.039 10.48 10.48 0 0 0 4.298-.789 25.342 25.342 0 0 0 9.072-5.786 9.804 9.804 0 0 0 2.024-2.663c1.557-3.275-.446-7.961-4.292-8.403-3.13-.368-7.816 2.922-10.193 4.801z" fill="#FFE945" stroke="#000" stroke-width="3"/><path d="M313.086 335.204c-1.08 3.228-.104 7.365 2.948 8.859 1.956.966 4.292.675 6.394.094a26.659 26.659 0 0 0 16.416-13.266c3.892-7.515-2.45-12.061-9.586-9.669-5.782 1.895-14.19 8.04-16.172 13.982z" fill="#FFE945" stroke="#000" stroke-width="3"/><path d="M205.777 86.811c4.806 5.388 6.057 3.031 11.829 7.37 5.771 4.34 13.644 6.81 20.298 3.986 3.114-1.318 5.657-3.633 7.914-6.155 7.448-8.263 9.13-19.079 13.162-29.443 1.37-3.524-1.178-7.427-4.266-9.607C178.183-1.128 67.138-15.25-18.985 23.5c-9.575 4.308-22.836 11.574-22.509 23.817.301 11.418 13.572 2.916 22.317 4.38 18.004 3.026 8.45 23.661 21.154 10.525C24.113 39.308 62.53 36.064 92.864 36.915 128.976 37.922 174.69 43.837 199.045 73c6.618 7.92 6.188 23.704 10.843 32.584 2.735 5.216 8.854 8.179 14.735 7.94 8.822-.353 16.82-7.914 17.645-16.722.385-4.074-1.261-8.947-5.221-9.99-2.226-.592-4.64.233-6.466 1.634-1.827 1.402-3.187 3.317-4.5 5.19" fill="#FFE945"/><path d="M205.777 86.811c4.806 5.388 6.057 3.031 11.829 7.37 5.771 4.34 13.644 6.81 20.298 3.986 3.114-1.318 5.657-3.633 7.914-6.155 7.448-8.263 9.13-19.079 13.162-29.443 1.37-3.524-1.178-7.427-4.266-9.607C178.183-1.128 67.138-15.25-18.985 23.5c-9.575 4.308-22.836 11.574-22.509 23.817.301 11.418 13.572 2.916 22.317 4.38 18.004 3.026 8.45 23.661 21.154 10.525C24.113 39.308 62.53 36.064 92.864 36.915 128.976 37.922 174.69 43.837 199.045 73c6.618 7.92 6.188 23.704 10.843 32.584 2.735 5.216 8.854 8.179 14.735 7.94 8.822-.353 16.82-7.914 17.645-16.722.385-4.074-1.261-8.947-5.221-9.99-2.226-.592-4.64.233-6.466 1.634-1.827 1.402-3.187 3.317-4.5 5.19" stroke="#000" stroke-width="3"/><path d="M271.301 78.44c-.576-5.101-3.752-9.57-7.453-13.135a12.899 12.899 0 0 0-2.984-2.294c-3.975-2.035-9.228.093-11.496 3.939-2.268 3.846-1.925 8.823-.067 12.881 2.05 4.48 7.385 12.212 13.022 11.76 6.025-.477 9.57-7.872 8.978-13.15z" fill="#FFE945" stroke="#000" stroke-width="3"/><path d="M266.723 89.692c-.576-5.107-3.757-9.57-7.452-13.136a12.753 12.753 0 0 0-2.985-2.294c-3.975-2.035-9.233.093-11.496 3.94-2.262 3.845-1.925 8.822-.067 12.88 2.05 4.48 7.385 12.207 13.016 11.761 6.026-.477 9.576-7.878 8.984-13.151z" fill="#FFE945" stroke="#000" stroke-width="3"/><path d="M254.116 90.704c-1.448-2.647-3.218-5.242-5.787-6.835-4.852-3.005-12.035-1.2-14.89 3.742-2.403 4.152-1.743 9.393-.493 14.039 1.869 6.939 8.553 16.966 17.184 13.333 9.908-4.173 8.076-16.81 3.986-24.28z" fill="#FFE945" stroke="#000" stroke-width="3"/><path d="M255.643 154.151c2.138 1.843 4.624 3.68 7.442 3.597 3.696-.109 6.592-3.685 7.038-7.354.446-3.67-.991-7.308-2.771-10.551-3.218-5.85-19.722-25.603-24.482-30.289-5.657-5.569-9.124-8.901-20.843 1.993-3.55 3.301 25.919 35.982 33.616 42.604z" fill="#FFE945" stroke="#000" stroke-width="3"/><path d="M226.096 93.652c1.313-1.89 2.668-3.81 4.5-5.19 1.832-1.38 4.24-2.227 6.467-1.635 3.96 1.038 5.605 5.916 5.221 9.99-.836 8.823-8.823 16.37-17.646 16.723-5.88.238-11.999-2.725-14.734-7.941-4.671-8.88-3.753-19.722-8.434-28.924" fill="#FFE945"/><path d="M226.096 93.652c1.313-1.89 2.668-3.81 4.5-5.19 1.832-1.38 4.24-2.227 6.467-1.635 3.96 1.038 5.605 5.916 5.221 9.99-.836 8.823-8.823 16.37-17.646 16.723-5.88.238-11.999-2.725-14.734-7.941-4.671-8.88-3.753-19.722-8.434-28.924" stroke="#000" stroke-width="3"/><path d="M233.362 86.894c.239-1.588-.306-3.186-.986-4.64a24.647 24.647 0 0 0-16.214-13.265" fill="#FFE945"/><path d="M233.362 86.894c.239-1.588-.306-3.186-.986-4.64a24.647 24.647 0 0 0-16.214-13.265" stroke="#000" stroke-width="3"/></svg>