<svg id="Layer_1" xmlns="http://www.w3.org/2000/svg" viewBox="0 0 334.5 378.5"><style>.st0{fill:#3f1bd0}.st1{fill:none}.st1,.st2{stroke:#000;stroke-width:2}.st2,.st3{fill:#ffb9d8}.st4,.st5{fill:#8c8c8c;stroke:#000;stroke-width:2;stroke-linecap:round}.st5{fill:#fff}.st6{fill:#f4b7ed}</style><path class="st0" d="M209.4 360.1c10.3 19.9 19.5 40.4 27.5 61.4.9 2.3 1.8 4.7 3.8 6.1 1.6 1.1 3.5 1.5 5.4 1.7 10.2 1 20.5-1.4 30.4-4.1 40.1-10.8 79.1-25.3 118-39.8.9-.3 1.9-.8 2.3-1.7.2-.7.2-1.5-.1-2.2-7.8-29.8-20.3-58.2-37.1-84.2"/><path class="st1" d="M209.4 360.1c10.3 19.9 19.5 40.4 27.5 61.4.9 2.3 1.8 4.7 3.8 6.1 1.6 1.1 3.5 1.5 5.4 1.7 10.2 1 20.5-1.4 30.4-4.1 40.1-10.8 79.1-25.3 118-39.8.9-.3 1.9-.8 2.3-1.7.2-.7.2-1.5-.1-2.2-7.8-29.8-20.3-58.2-37.1-84.2"/><path class="st2" d="M12.2 273.3c-3.2.2-6.1 2-7.6 4.9-1.6 3.3-.9 7.2.5 10.5 2 4.7 5.3 8.7 9.6 11.4.8.5 1.9 1 2.7.5.7-.5.8-1.4.9-2.2.5-7.6 5.8-25.1-6.1-25.1z"/><path class="st3" d="M112.6 431.5c-20.6-23.6-36.1-34.2-52-56.9-1.4-2.1-3-4.1-5.3-5.1s-4.8-1.5-7.2-2.1c-5.3-1.3-11.7-4.3-14.5-8.8l27.4-36c3.5-2.3 4.7-6.9 4.4-11.1-.3-4.2-1.8-8.1-2.5-12.2-.6-3.3-.6-6.7-.2-10 .3-2.2.9-4.5 2.3-6.2 1.5-1.7 5.6-5.1 10-4.1 6.6 1.6 6.2 8.2 6.3 11.6.3 11.2 8.7 20.6 11.4 31.5 1.3 5.2 1.2 10.7-.3 15.8-1.1 3.9-4 6.9-2.8 11.3.6 2.3 2 4.3 3.4 6.2 13.8 18.4 32.4 31.7 47.7 48.5"/><path class="st1" d="M112.6 431.5c-20.6-23.6-36.1-34.2-52-56.9-1.4-2.1-3-4.1-5.3-5.1s-4.8-1.5-7.2-2.1c-5.3-1.3-11.7-4.3-14.5-8.8l27.4-36c3.5-2.3 4.7-6.9 4.4-11.1-.3-4.2-1.8-8.1-2.5-12.2-.6-3.3-.6-6.7-.2-10 .3-2.2.9-4.5 2.3-6.2 1.5-1.7 5.6-5.1 10-4.1 6.6 1.6 6.2 8.2 6.3 11.6.3 11.2 8.7 20.6 11.4 31.5 1.3 5.2 1.2 10.7-.3 15.8-1.1 3.9-4 6.9-2.8 11.3.6 2.3 2 4.3 3.4 6.2 13.8 18.4 32.4 31.7 47.7 48.5"/><path class="st4" d="M25.9 358.6h26.4c5.8 0 10.5-4.7 10.5-10.5v-68.8c0-5.8-4.7-10.5-10.5-10.5H25.9c-5.8 0-10.5 4.7-10.5 10.5v68.8c0 5.8 4.7 10.5 10.5 10.5z"/><path class="st5" d="M28.4 340.5h21.3c3.8 0 6.9-2.9 6.9-6.6V282c0-3.6-3.1-6.6-6.9-6.6H28.4c-3.8 0-6.9 2.9-6.9 6.6v51.9c0 3.7 3.1 6.6 6.9 6.6zm10 12.1c1.7 0 3.1-1.4 3.1-3.1 0-1.7-1.4-3.1-3.1-3.1s-3.1 1.4-3.1 3.1c.1 1.7 1.4 3.1 3.1 3.1z"/><path class="st2" d="M22.1 307.2c2 1.6 3.8 3.6 5.1 5.8 1.6 2.5 2.5 5.9.9 8.4-1 1.6-3 2.5-4.9 2.7-1.9.1-3.9-.3-5.6-1-4.5-1.6-8.5-4.2-11.9-7.6-1.1-1-2-2.2-2.7-3.5-2-4.3.6-10.4 5.6-11 4.2-.6 10.4 3.7 13.5 6.2zm-2.5 38.6c1.6 1.2 2.9 2.7 3.9 4.4 1.2 1.9 1.9 4.5.7 6.4-.9 1.2-2.2 2-3.7 2s-2.9-.2-4.3-.8c-3.4-1.3-6.5-3.2-9.1-5.8-.8-.8-1.5-1.7-2-2.7-1.6-3.3.4-8 4.3-8.4 3.1-.3 7.8 3 10.2 4.9z"/><path class="st2" d="M28 334.7c1.1 3.2.1 7.4-2.9 8.9-2 1-4.3.7-6.4.1-7.1-2-13-6.8-16.4-13.3-3.9-7.5 2.4-12.1 9.6-9.7 5.7 1.9 14.1 8.1 16.1 14z"/><path class="st3" d="M135.3 86.3c-4.8 5.4-6.1 3-11.8 7.4-5.8 4.3-13.6 6.8-20.3 4-3.1-1.3-5.7-3.6-7.9-6.2-7.4-8.3-9.1-19.1-13.2-29.4-1.4-3.5 1.2-7.4 4.3-9.6C162.9-1.6 273.9-15.8 360 23c9.6 4.3 22.8 11.6 22.5 23.8-.3 11.4-13.6 2.9-22.3 4.4-18 3-8.4 23.7-21.2 10.5-22.1-22.9-60.6-26.2-90.9-25.3-36.1 1-81.8 6.9-106.2 36.1-6.6 7.9-6.2 23.7-10.8 32.6-2.7 5.2-8.9 8.2-14.7 7.9-8.8-.4-16.8-7.9-17.6-16.7-.4-4.1 1.3-8.9 5.2-10 2.2-.6 4.6.2 6.5 1.6 1.8 1.4 3.2 3.3 4.5 5.2"/><path class="st1" d="M135.3 86.3c-4.8 5.4-6.1 3-11.8 7.4-5.8 4.3-13.6 6.8-20.3 4-3.1-1.3-5.7-3.6-7.9-6.2-7.4-8.3-9.1-19.1-13.2-29.4-1.4-3.5 1.2-7.4 4.3-9.6C162.9-1.6 273.9-15.8 360 23c9.6 4.3 22.8 11.6 22.5 23.8-.3 11.4-13.6 2.9-22.3 4.4-18 3-8.4 23.7-21.2 10.5-22.1-22.9-60.6-26.2-90.9-25.3-36.1 1-81.8 6.9-106.2 36.1-6.6 7.9-6.2 23.7-10.8 32.6-2.7 5.2-8.9 8.2-14.7 7.9-8.8-.4-16.8-7.9-17.6-16.7-.4-4.1 1.3-8.9 5.2-10 2.2-.6 4.6.2 6.5 1.6 1.8 1.4 3.2 3.3 4.5 5.2"/><path class="st2" d="M69.8 77.9c.6-5.1 3.8-9.6 7.5-13.1.9-.9 1.9-1.7 3-2.3 4-2 9.2.1 11.5 3.9 2.3 3.8 1.9 8.8.1 12.9-2.1 4.5-7.4 12.2-13 11.8-6.2-.5-9.7-7.9-9.1-13.2z"/><path class="st2" d="M74.3 89.2c.6-5.1 3.8-9.6 7.5-13.1.9-.9 1.9-1.7 3-2.3 4-2 9.2.1 11.5 3.9 2.3 3.8 1.9 8.8.1 12.9-2.1 4.5-7.4 12.2-13 11.8-6.1-.5-9.7-7.9-9.1-13.2z"/><path class="st2" d="M86.9 90.2c1.4-2.6 3.2-5.2 5.8-6.8 4.9-3 12-1.2 14.9 3.7 2.4 4.2 1.7 9.4.5 14-1.9 6.9-8.6 17-17.2 13.3-9.9-4.1-8-16.7-4-24.2z"/><path class="st2" d="M85.4 153.6c-2.1 1.8-4.6 3.7-7.4 3.6-3.7-.1-6.6-3.7-7-7.4-.4-3.7 1-7.3 2.8-10.6 3.2-5.9 19.7-25.6 24.5-30.3 5.7-5.6 9.1-8.9 20.8 2 3.5 3.4-26 36.1-33.7 42.7z"/><path class="st3" d="M115 93.1c-1.3-1.9-2.7-3.8-4.5-5.2s-4.2-2.2-6.5-1.6c-4 1-5.6 5.9-5.2 10 .8 8.8 8.8 16.4 17.6 16.7 5.9.2 12-2.7 14.7-7.9 4.7-8.9 3.8-19.7 8.4-28.9"/><path class="st1" d="M115 93.1c-1.3-1.9-2.7-3.8-4.5-5.2s-4.2-2.2-6.5-1.6c-4 1-5.6 5.9-5.2 10 .8 8.8 8.8 16.4 17.6 16.7 5.9.2 12-2.7 14.7-7.9 4.7-8.9 3.8-19.7 8.4-28.9"/><path class="st6" d="M107.7 86.4c-.2-1.6.3-3.2 1-4.6 3.2-6.6 9.1-11.5 16.2-13.3"/><path class="st1" d="M107.7 86.4c-.2-1.6.3-3.2 1-4.6 3.2-6.6 9.1-11.5 16.2-13.3"/></svg>