<svg width="334" height="378" fill="none" xmlns="http://www.w3.org/2000/svg"><g clip-path="url(#clip0)"><path d="M208.912 359.562a594.385 594.385 0 0 1 27.507 61.408c.866 2.278 1.821 4.671 3.788 6.119 1.557 1.126 3.54 1.479 5.45 1.671 10.245 1.038 20.5-1.411 30.444-4.09 40.103-10.8 79.095-25.321 118.015-39.827.919-.343 1.941-.779 2.305-1.692a3.562 3.562 0 0 0-.099-2.175 292.278 292.278 0 0 0-37.057-84.161" fill="#3F1BD0"/><path d="M208.912 359.562a594.385 594.385 0 0 1 27.507 61.408c.866 2.278 1.821 4.671 3.788 6.119 1.557 1.126 3.54 1.479 5.45 1.671 10.245 1.038 20.5-1.411 30.444-4.09 40.103-10.8 79.095-25.321 118.015-39.827.919-.343 1.941-.779 2.305-1.692a3.562 3.562 0 0 0-.099-2.175 292.278 292.278 0 0 0-37.057-84.161" stroke="#000" stroke-width="2"/><path d="M11.714 272.76a8.908 8.908 0 0 0-7.562 4.941c-1.557 3.269-.934 7.193.462 10.535a25.124 25.124 0 0 0 9.628 11.418c.82.519 1.9.991 2.709.457.69-.457.804-1.401.856-2.227.452-7.541 5.829-25.124-6.093-25.124z" fill="#F4B7ED" stroke="#000" stroke-width="2"/><path d="M112.134 431.018c-20.594-23.552-36.05-34.207-52.01-56.887-1.442-2.076-2.994-4.054-5.277-5.092-2.284-1.038-4.78-1.495-7.22-2.076-5.262-1.251-11.687-4.266-14.532-8.823l27.346-36.086c3.504-2.263 4.734-6.902 4.443-11.065-.29-4.162-1.785-8.138-2.502-12.248a33.28 33.28 0 0 1-.202-10.022c.29-2.206.856-4.479 2.31-6.166 1.453-1.687 5.579-5.096 10.011-4.063 6.628 1.557 6.228 8.226 6.316 11.552.291 11.232 8.72 20.584 11.377 31.498a31.186 31.186 0 0 1-.26 15.819c-1.126 3.924-3.96 6.939-2.823 11.335.586 2.289 1.988 4.267 3.4 6.156 13.774 18.445 32.359 31.695 47.747 48.516" fill="#F4B7ED"/><path d="M112.134 431.018c-20.594-23.552-36.05-34.207-52.01-56.887-1.442-2.076-2.994-4.054-5.277-5.092-2.284-1.038-4.78-1.495-7.22-2.076-5.262-1.251-11.687-4.266-14.532-8.823l27.346-36.086c3.504-2.263 4.734-6.902 4.443-11.065-.29-4.162-1.785-8.138-2.502-12.248a33.28 33.28 0 0 1-.202-10.022c.29-2.206.856-4.479 2.31-6.166 1.453-1.687 5.579-5.096 10.011-4.063 6.628 1.557 6.228 8.226 6.316 11.552.291 11.232 8.72 20.584 11.377 31.498a31.186 31.186 0 0 1-.26 15.819c-1.126 3.924-3.96 6.939-2.823 11.335.586 2.289 1.988 4.267 3.4 6.156 13.774 18.445 32.359 31.695 47.747 48.516" stroke="#000" stroke-width="2"/><path d="M25.39 358.114h26.443c5.78 0 10.468-4.687 10.468-10.468v-68.778c0-5.781-4.687-10.468-10.468-10.468H25.39c-5.782 0-10.469 4.687-10.469 10.468v68.778c0 5.781 4.687 10.468 10.469 10.468z" fill="#8C8C8C" stroke="#000" stroke-width="2" stroke-linecap="round"/><path d="M27.102 346.26h23.023a7.416 7.416 0 0 0 7.417-7.416v-58.662a7.417 7.417 0 0 0-7.417-7.417H27.102a7.417 7.417 0 0 0-7.416 7.417v58.662a7.416 7.416 0 0 0 7.416 7.416zm10.794 9.114a3.052 3.052 0 1 0 0-6.103 3.052 3.052 0 0 0 0 6.103z" fill="#fff" stroke="#000" stroke-width="2" stroke-linecap="round"/><path d="M21.59 306.687a22.084 22.084 0 0 1 5.127 5.802c1.557 2.523 2.522 5.855.945 8.351-1.038 1.625-2.97 2.512-4.884 2.652-1.93.06-3.85-.294-5.631-1.038a33.119 33.119 0 0 1-11.885-7.582 12.577 12.577 0 0 1-2.668-3.472c-2.02-4.287.586-10.432 5.62-11.008 4.116-.478 10.261 3.83 13.375 6.295zm-2.506 38.582a16.876 16.876 0 0 1 3.913 4.427c1.178 1.926 1.925 4.469.721 6.374a4.805 4.805 0 0 1-3.726 2.039 10.478 10.478 0 0 1-4.297-.789 25.327 25.327 0 0 1-9.072-5.787 9.771 9.771 0 0 1-2.025-2.662c-1.557-3.275.447-7.961 4.293-8.403 3.13-.368 7.816 2.922 10.193 4.801z" fill="#F4B7ED" stroke="#000" stroke-width="2"/><path d="M27.46 334.204c1.08 3.228.104 7.365-2.948 8.859-1.957.966-4.292.675-6.394.094a26.655 26.655 0 0 1-16.416-13.266c-3.893-7.515 2.45-12.061 9.586-9.669 5.781 1.895 14.19 8.04 16.172 13.982z" fill="#F4B7ED" stroke="#000" stroke-width="2"/><path d="M137.778 77.456c-4.806 5.387-9.067 11.386-14.838 15.725-5.771 4.34-13.645 6.81-20.298 3.986-3.114-1.318-5.657-3.633-7.915-6.155-7.448-8.263-9.13-19.079-13.162-29.443-1.37-3.524 1.178-7.427 4.266-9.607C162.363-2.128 273.408-16.25 359.53 22.5c9.576 4.308 22.836 11.574 22.509 23.817-.301 11.418-13.572 2.916-22.317 4.38-18.004 3.026-8.449 23.661-21.154 10.525-22.135-22.913-60.552-26.157-90.887-25.306-36.112 1.007-84.233 10.582-108.59 39.745-6.617 7.92-3.778 20.044-8.434 28.924-2.735 5.216-8.854 8.179-14.734 7.94-8.823-.353-16.82-7.914-17.646-16.722-.384-4.074 1.261-8.947 5.221-9.99 2.227-.592 4.64.233 6.467 1.634 1.827 1.402 3.186 3.317 4.5 5.19" fill="#F4B7ED"/><path d="M137.778 77.456c-4.806 5.387-9.067 11.386-14.838 15.725-5.771 4.34-13.645 6.81-20.298 3.986-3.114-1.318-5.657-3.633-7.915-6.155-7.448-8.263-9.13-19.079-13.162-29.443-1.37-3.524 1.178-7.427 4.266-9.607C162.363-2.128 273.408-16.25 359.53 22.5c9.576 4.308 22.836 11.574 22.509 23.817-.301 11.418-13.572 2.916-22.317 4.38-18.004 3.026-8.449 23.661-21.154 10.525-22.135-22.913-60.552-26.157-90.887-25.306-36.112 1.007-84.233 10.582-108.59 39.745-6.617 7.92-3.778 20.044-8.434 28.924-2.735 5.216-8.854 8.179-14.734 7.94-8.823-.353-16.82-7.914-17.646-16.722-.384-4.074 1.261-8.947 5.221-9.99 2.227-.592 4.64.233 6.467 1.634 1.827 1.402 3.186 3.317 4.5 5.19" stroke="#000" stroke-width="2"/><path d="M69.244 77.44c.576-5.101 3.752-9.57 7.453-13.135a12.92 12.92 0 0 1 2.984-2.294c3.976-2.035 9.228.093 11.496 3.939 2.268 3.846 1.925 8.823.067 12.881-2.05 4.48-7.385 12.212-13.021 11.76-6.026-.477-9.57-7.872-8.979-13.15z" fill="#F4B7ED" stroke="#000" stroke-width="2"/><path d="M73.822 88.692c.576-5.107 3.758-9.57 7.453-13.136a12.754 12.754 0 0 1 2.984-2.294c3.976-2.035 9.233.093 11.496 3.94 2.263 3.845 1.925 8.822.067 12.88-2.05 4.48-7.385 12.207-13.016 11.761-6.026-.477-9.576-7.878-8.984-13.151z" fill="#F4B7ED" stroke="#000" stroke-width="2"/><path d="M86.43 89.704c1.447-2.647 3.217-5.242 5.786-6.835 4.853-3.005 12.036-1.2 14.89 3.742 2.403 4.152 1.744 9.393.493 14.039-1.868 6.939-8.553 16.966-17.184 13.333-9.908-4.173-8.076-16.81-3.986-24.28z" fill="#F4B7ED" stroke="#000" stroke-width="2"/><path d="M84.903 153.151c-2.139 1.843-4.625 3.68-7.443 3.597-3.695-.109-6.591-3.685-7.038-7.354-.446-3.67.992-7.308 2.772-10.551 3.218-5.85 19.722-25.603 24.481-30.289 5.657-5.569 9.124-8.901 20.843 1.993 3.55 3.301-25.919 35.982-33.615 42.604z" fill="#F4B7ED" stroke="#000" stroke-width="2"/><path d="M114.449 92.652c-1.313-1.89-2.668-3.81-4.5-5.19-1.832-1.38-4.24-2.227-6.466-1.635-3.96 1.038-5.606 5.916-5.222 9.99.836 8.823 8.823 16.37 17.646 16.723 5.881.238 12-2.725 14.735-7.941 4.671-8.88 3.752-19.722 8.433-28.924" fill="#F4B7ED"/><path d="M114.449 92.652c-1.313-1.89-2.668-3.81-4.5-5.19-1.832-1.38-4.24-2.227-6.466-1.635-3.96 1.038-5.606 5.916-5.222 9.99.836 8.823 8.823 16.37 17.646 16.723 5.881.238 12-2.725 14.735-7.941 4.671-8.88 3.752-19.722 8.433-28.924" stroke="#000" stroke-width="2"/><path d="M107.183 85.894c-.238-1.588.307-3.186.986-4.64a24.647 24.647 0 0 1 16.214-13.265" fill="#F4B7ED"/><path d="M107.183 85.894c-.238-1.588.307-3.186.986-4.64a24.647 24.647 0 0 1 16.214-13.265" stroke="#000" stroke-width="2"/></g><defs><clipPath id="clip0"><path fill="#fff" d="M0 0H334V378H0z"/></clipPath></defs></svg>