<svg enable-background="new 0 0 449.8 695.7" viewBox="0 0 449.8 695.7" xmlns="http://www.w3.org/2000/svg" xmlns:xlink="http://www.w3.org/1999/xlink"><clipPath id="a"><path d="m-856.4-112.8h2044.8v1962.4h-2044.8z"/></clipPath><g clip-path="url(#a)" stroke="#020202" stroke-miterlimit="10" stroke-width="2"><path d="m82.2-8.6c83.5 0 94.9-97.9 143.2-103.2 45-5 76.7 66.9 84.8 81.3 17.7 31.3 63.2 34.2 96.4 20.2 33.1-13.9 103-81 143.2-59.7s-13.8 137.5 40.9 163.3c34 16 81.2-25.5 108.5.4 28.8 27.4-14.1 86.7 16.2 112.4 27.3 23.1 81.7-23.9 102.9-6.1 21.3 17.8-6 58.2 11.8 74.7 17.8 16.4 58.6-7.1 66.3 17 3.8 12-1.7 25 .5 37.4 9.3 54 128.2 24.9 128.1 79.7-.1 37-63 46-67.4 82.7-2.4 20.2 15.6 37.7 35 43.8 19.3 6.2 150.2 22.1 151.8 55.4 1.7 33.3-127.4 74.9-129.9 123.2-1.7 33.3 159.8 54.9 166.5 99.9 6.6 45-105.2 58.2-108.2 84.9-3 26.6 118.2 10.2 114.8 36.7-5 40-133.2 13.3-141.5 41.6s121.5 51.6 123.2 104.9c1.6 53.3-112.1 13.7-138.3 52.4-19.9 29.3 10.7 65.4 35.4 90.8 24.8 25.4 41.6 75.2 9.1 89.4-9.8 4.3-21 3-31.7 1.4-43.2-6.6-100-10.8-117.7 29.2-15.7 35.6 15.8 72.6 41.5 101.8s46.5 78.1 16.4 102.7c-11.8 9.7-28.1 11.7-43.5 12.2-51.9 1.7-101.1-60.4-146-50.5-45 10 4.7 109.9-31.2 118.4-14.3 3.4-27.9-8.1-42.5-8.9-29-1.5-42.7 35-46.2 63.9s-12.6 65.5-41.5 69c-43.8 5.1-61.7-74.3-105.4-68.8-26.2 3.3-37.1 35.7-36.6 62.2.5 26.4 6 55.5-9.1 77.2-17.7 25.6-56.1 27.6-85.1 16.2s-53.1-32.7-81.1-46.3c-11-5.4-24.1-9.5-35.4-4.6-15.1 6.6-19.2 25.6-28.8 39-15.6 21.6-49.4 27.2-71 11.6-10.7-7.7-18.5-19.8-30.8-24.6-36.2-14.3-76.8 42-109.4 21-12-7.7-16.3-23.1-26-33.4-20.5-21.8-56.6-15.3-83.7-2.6s-54.7 30.4-84.3 26c-65.7-9.9-77-114-140.8-132.6-27-7.9-55.5 2.3-83.3 6.4s-62.2-2-73-27.9c-7.7-18.5-.3-40.5-7.6-59.1-19.8-50.5-117-26.4-134.1-77.8-8.7-26.2 11.4-57.2-1.8-81.4-23.1-42.2-103-.8-131.4-39.6-13.7-18.7-5.7-45.4 6-65.4 11.8-20 47.3-33.8 42.4-60.5s-58.3-21.6-74.9-48.3c-16.6-26.6 37.3-46.5 36.7-73.2-.7-26.7-65.7-12.3-61.3-47.1 1.3-10.1 10-17.7 13.3-27.3 13.9-40.3-63-53.4-74.1-94.5-9.1-33.5 29-58.4 49-86.8 27.3-38.8 20.5-92.5 2.2-136.3s-46.7-83.1-61.8-128.2c-7.9-23.7-11.7-50.4-2-73.5s36.5-40.2 60.2-32.1c15.4 5.3 56.5 60.7 83 28.6 26.4-32.1-85.1-140.3-51.8-183.6s86.6 21.6 109.9 5-66.5-88.5-26.5-121.9c40-33.3 89.9 36.7 116.5 20s-41.6-113.2 23.3-156.5 134.9 86.6 171.5 53.3-15-179.8 38.3-213.1 138.2 71.6 171.5 56.6c33.3-14.9-3.3-74.9 35-94.9s53.3 43.3 79.9 40-3.2-57.8 40.9-61.3c44-3.8 27.3 77.8 80.6 77.8z" fill="#683ecd"/><path d="m104.5 179.4c39-3.9 57.6-52.4 94.4-65.7 27.7-10 62.1 5.7 72.6 33.2 5.7 15.2 6.2 34.3 19.8 43.2 15.1 9.9 34.6-.3 50.7-8.4 16-8.1 39.9-12 48.5 3.8 6.4 11.7-.7 26.9 4.2 39.4 8.5 21.3 40.9 15.7 58.8 1.4s35.8-34.6 58.4-31.7c24.7 3.2 36.8 32.3 37.5 57.2.7 24.8-4.7 51.1 5.5 73.7 15.6 34.8 60.5 45.4 98.6 42.2s83.9-40.1 113.7-8.5c29.8 31.7-75.7 122.7-66.7 158.2s70.4 15.8 113.2 32.9c25.3 10.1 49 30 55.2 56.5 13.1 57-73 51.1-69.1 111.2 2.3 35.6 95.5.7 108.8 34s-111.5 59.9-111.5 96.6c0 46.6 169.8-5 169.8 73.2 0 43.3-151 36.3-171.3 69.7-20.2 33.5 12.6 46.5 30.2 64.3 17.7 17.7 34.9 45.3 20.5 65.8-17.2 24.5-60.8 10.7-81.2 32.6-30.4 32.6 22.6 102.8-16.4 124.5-16.3 9.1-39.3.2-53.8 11.8-11 8.8-11.8 25.1-10.1 39.1 2.8 23.3 9.5 46.2 8.3 69.6s-12.9 48.5-35 56c-26.1 8.9-52.6-9.5-77.2-21.8s-62.3-14.7-72.5 11c-8.1 20.5 1.4 55.1-20.5 57.3-15.7 1.7-26.6-20.8-42.1-18-20.6 3.7-9.5 35.2-13.8 55.7-5.9 28-45.3 33-71.8 21.9-26.4-11.1-47.2-63.4-75.8-63.4-23.3 0-25 128.2-71.6 128.2-48.3 0-55.1-103.3-81.6-113.2-26.4-9.9-35.1 69.9-62.5 72.4s-9.9-45.1-30-47.2c-26.2-2.8-47.5 38.5-70.7 26.1-17.4-9.3-11.8-38.9-27.8-50.3-16.6-11.8-37.7 5.4-53 18.9-18.8 16.6-44.7 29.8-68.5 21.7-54.6-18.6-34.2-115-84.3-143.3-45.2-25.5-109.1 26.6-150.9-4.1-27.5-20.2-24.3-61.8-15.8-94.9s50.7-73.9 24.1-93.9-70.8 9.6-92.9 3.7-40.7-30.8-31.2-51.7c7.2-15.7 28-27.5 23.3-44-4.2-14.5-25.4-17.6-31.1-31.6-4.1-10.2 1.8-21.4 4.5-32.1 7.8-32.1-15-63.3-38.9-86.2s-51.9-45.6-58.6-78c-13.7-65.7 67.7-123.7 53.1-189.2-9.5-42.8-58.6-83-36.1-120.7 18.7-31.2 72.5 9.4 99.5-7.6s-30.3-68.2-14.4-99.8c7.1-14.2 26-19.1 41.5-15.3 15.4 3.9 30.5 24.6 48.2 16.6 17.8-7.9-20.7-80.3 16.6-108.2 37.4-27.9 112.6 27.3 140.3-9.7 7.8-10.4 8.8-24.3 9.4-37.3 2.4-46.9-54.8-95.5-9.9-127.9 89.9-64.9 111.5 61.6 158.1 40s4.3-87.9 51.6-109.9c118.1-54.8 119.2 56 179.7 50z" fill="#974ec8"/><path d="m191.2 400.1c45.1 21.2 84.6-74.2 129.5-52.5 36.4 17.6 12.7 85.5 47.7 105.8 24.6 14.3 53.2-8.3 76-25.2 22.9-16.9 64.7-23 71.8 4.5 5.7 22.1-20 41.7-18.4 64.5 2.1 29.3 42.6 35.6 71.5 30.2s66.4-10.3 80.5 15.5c13.4 24.4-7.8 52.7-26.4 73.4-18.6 20.8-36.1 53.3-17.3 73.9 26.6 29.2 92-3.8 106.5 33.1 13.5 34.3-61.5 55.9-59.8 87.5 1.7 31.7 82.9 12.2 86.6 31.7 3.7 19.3-91.6 16.6-89.9 38.3 1.7 21.6 96.6 51.6 89.9 81.6-6.6 30-87.9-15.4-108.2 10s93.2 111.5 66.6 148.2c-18.2 25-101.7-26-121.6-5.5-20 20.5 72.8 113.6 46.7 130.4-26.2 16.8-110.8-73.1-136.5-59.9-25.8 13.2 9.5 71.5 19 100.9 9.5 29.5 6 70-23.1 80.6-39.6 14.4-77.4-61.9-107.4-55.9s8.3 77.5-31.7 89.1-49.9-49.9-73.3-48.3c-23.3 1.7-38.3 63.2-68.2 64.9-30 1.7-26.6-49.9-66.6-61.6s-84.9 49.9-109.9 30c-25-20-11.6-65.5-25-76.6-39.3-32.6-105.8 43.1-141.5 6.6-37.6-38.3 24.4-107.3-8.3-149.8-18.5-24.1-129.9 3.3-156.5-30s49.9-103.2 35-138.2c-15-35-114.8-18.3-118.2-64.9-3.1-43.2 96.3-28.3 99.9-49.9 3.3-20-122.6-27.7-118.2-94.9s116.8-1.4 123.2-40c1.8-10.6-94.9-104.9-59.9-138.2s75.6 36 103.2 16.6c22.5-15.8 27.1-54.5 15.8-79.5s-22.9-57.2-4.1-77.2c12.5-13.2 34-13.9 50.7-6.6 16.6 7.2 29.6 20.8 41.9 34.1 6.2 6.6 13.6 13.7 22.6 13.5 12.4-.3 19.9-14.1 21.6-26.4 6-40.2-16.2-91.8 16.6-115.7 21.8-15.8 53-4.7 74.3 11.6 21.4 16.4 46.5 51.9 65.7 45.9 45.9-14.4-7-110.9 61.1-105.6 46.2 3.5 30.8 63.5 66.1 80z" fill="#c75dc4"/><path d="m113.6 524.2c53.3-23.3 70.8 49 82.2 60.3 12 11.8 34.4 10.1 44.4-3.4 4.5-6 29.8-40.2 54.4-27.1 14.1 7.5 22.2 23.8 23.4 39.8.7 9-.6 18.4 2.6 26.9 6.2 16.2 26.1 22.3 43.5 23.2s36-.8 51.1 8c19.6 11.4 25.6 40.9 12.2 59.1-4.7 6.4-25.7 20.1-16.6 39.9s57.4-15.4 63.2 5.5c5.7 20.9-43.2 19.5-44.2 35.9-.9 16.4 78.3-1.7 81.6 28.3s-51.6 31.7-56.6 61.6c-5 30 47.5 38.3 42.1 69.1-5.5 30.8-47.1 10.8-67.1 39.1-13.1 18.5 25 79.9 2.6 110.7-4.7 6.6-13.7 8.5-21.7 7.1-14.9-2.6-27.3-12.5-40.9-18.9-13.6-6.5-31.7-8.9-42.4 1.7-20.6 20.4 5.5 65.7-19.4 80.4-12.6 7.5-28.8-.5-39.9-10.1s-21.9-21.6-36.5-23.3c-16.5-1.9-31.3 10.6-40.6 24.4s-15.5 29.8-27.1 41.7-31.6 18.4-44.8 8.3c-16-12.2-11.4-38.3-23.3-54.4-8.6-11.6-24.8-15.8-39-13.5-14.3 2.4-27.1 10.3-38.6 19.1-9.7 7.4-19.2 15.7-30.8 19.5s-26.2 1.9-33.1-8.2c-3.5-5.1-4.6-11.6-4.5-17.9.3-14.7 6.6-28.5 9.7-42.9 3.2-14.3 6.5-30.6-8-41.3-14.6-10.8-67 18.3-81.2-24.1-11.6-35 36.7-68.2 30-93.2-9.5-35.5-83.3-30-79.9-79.9 3.3-49.9 54.9-33.3 58.3-49.9 6.1-30.4-71.6-94.9-40-143.2 31.7-48.3 84.9 23.3 106.5 5s-5-109.9 30-118.2 64.7 100.4 91.4 95.3c37-7.2-6.3-117.1 47-140.4z" fill="#f66dbf"/></g></svg>